<?xml version="1.0" encoding="utf-8"?>
<!-- Generator: Adobe Illustrator 25.2.1, SVG Export Plug-In . SVG Version: 6.00 Build 0)  -->
<svg version="1.1" id="レイヤー_1" xmlns="http://www.w3.org/2000/svg" xmlns:xlink="http://www.w3.org/1999/xlink" x="0px"
	 y="0px" viewBox="0 0 136 230" style="enable-background:new 0 0 136 230;" xml:space="preserve">
<style type="text/css">
	.st0{fill:#F6C9B3;}
	.st1{fill:#E60012;}
	.st2{fill:#1D2088;}
	.st3{fill:#060203;}
	.st4{fill:#040000;}
	.st5{fill:#FFFFFF;}
	.st6{fill:#727171;}
	.st7{fill:#9D1F24;}
	.st8{fill:#581110;}
	.st9{fill:#D41C19;}
	.st10{fill:#A9563C;}
	.st11{clip-path:url(#SVGID_2_);fill:#F6C9B3;}
	.st12{clip-path:url(#SVGID_2_);fill:#F6C8B2;}
	.st13{clip-path:url(#SVGID_2_);fill:#F6C8B1;}
	.st14{clip-path:url(#SVGID_2_);fill:#F6C7B0;}
	.st15{clip-path:url(#SVGID_2_);fill:#F6C6AF;}
	.st16{clip-path:url(#SVGID_2_);fill:#F6C5AE;}
	.st17{clip-path:url(#SVGID_2_);fill:#F6C4AD;}
	.st18{clip-path:url(#SVGID_2_);fill:#F6C4AC;}
	.st19{clip-path:url(#SVGID_2_);fill:#F6C3AB;}
	.st20{clip-path:url(#SVGID_2_);fill:#F6C2AA;}
	.st21{clip-path:url(#SVGID_2_);fill:#F5C1A9;}
	.st22{clip-path:url(#SVGID_2_);fill:#F5C0A8;}
	.st23{clip-path:url(#SVGID_2_);fill:#F5C0A7;}
	.st24{clip-path:url(#SVGID_2_);fill:#F5BFA6;}
	.st25{clip-path:url(#SVGID_2_);fill:#F5BEA4;}
	.st26{clip-path:url(#SVGID_2_);fill:#F5BDA3;}
	.st27{clip-path:url(#SVGID_2_);fill:#F5BCA2;}
	.st28{clip-path:url(#SVGID_2_);fill:#F5BBA1;}
	.st29{clip-path:url(#SVGID_2_);fill:#F5BBA0;}
	.st30{clip-path:url(#SVGID_2_);fill:#F5BA9F;}
	.st31{clip-path:url(#SVGID_2_);fill:#F5B99E;}
	.st32{clip-path:url(#SVGID_2_);fill:#F5B89D;}
	.st33{clip-path:url(#SVGID_2_);fill:#F4B79C;}
	.st34{clip-path:url(#SVGID_2_);fill:#F4B69B;}
	.st35{clip-path:url(#SVGID_2_);fill:#F4B69A;}
	.st36{clip-path:url(#SVGID_2_);fill:#F4B599;}
	.st37{clip-path:url(#SVGID_2_);fill:#F4B498;}
	.st38{clip-path:url(#SVGID_2_);fill:#F4B397;}
	.st39{clip-path:url(#SVGID_2_);fill:#F4B296;}
	.st40{clip-path:url(#SVGID_2_);fill:#F4B195;}
	.st41{clip-path:url(#SVGID_2_);fill:#F4B194;}
	.st42{clip-path:url(#SVGID_2_);fill:#F3B093;}
	.st43{clip-path:url(#SVGID_2_);fill:#F3AF92;}
	.st44{clip-path:url(#SVGID_2_);fill:#F3AE91;}
	.st45{clip-path:url(#SVGID_2_);fill:#F3AD90;}
	.st46{clip-path:url(#SVGID_2_);fill:#F3AC8F;}
	.st47{clip-path:url(#SVGID_2_);fill:#F3AC8E;}
	.st48{clip-path:url(#SVGID_2_);fill:#F3AB8D;}
	.st49{clip-path:url(#SVGID_2_);fill:#F3AA8C;}
	.st50{clip-path:url(#SVGID_2_);fill:#F3A98B;}
	.st51{clip-path:url(#SVGID_2_);fill:#F3A88A;}
	.st52{clip-path:url(#SVGID_2_);fill:#F2A789;}
	.st53{clip-path:url(#SVGID_2_);fill:#F2A688;}
	.st54{clip-path:url(#SVGID_2_);fill:#F2A687;}
	.st55{clip-path:url(#SVGID_2_);fill:#F2A586;}
	.st56{clip-path:url(#SVGID_2_);fill:#F2A485;}
	.st57{clip-path:url(#SVGID_2_);fill:#F2A384;}
	.st58{clip-path:url(#SVGID_2_);fill:#F2A283;}
	.st59{clip-path:url(#SVGID_2_);fill:#F2A182;}
	.st60{clip-path:url(#SVGID_2_);fill:#F2A181;}
	.st61{clip-path:url(#SVGID_2_);fill:#F2A080;}
	.st62{clip-path:url(#SVGID_2_);fill:#F29F80;}
	.st63{clip-path:url(#SVGID_2_);fill:#F19E7F;}
	.st64{clip-path:url(#SVGID_2_);fill:#F19D7E;}
	.st65{clip-path:url(#SVGID_2_);fill:#F19C7D;}
	.st66{clip-path:url(#SVGID_2_);fill:#F19B7C;}
	.st67{clip-path:url(#SVGID_2_);fill:#F19B7B;}
	.st68{clip-path:url(#SVGID_2_);fill:#F19A7A;}
	.st69{clip-path:url(#SVGID_2_);fill:#F19979;}
	.st70{clip-path:url(#SVGID_2_);fill:#F19878;}
	.st71{clip-path:url(#SVGID_2_);fill:#F19777;}
	.st72{clip-path:url(#SVGID_2_);fill:#F19676;}
	.st73{clip-path:url(#SVGID_2_);fill:#F09575;}
	.st74{clip-path:url(#SVGID_2_);fill:#F09574;}
	.st75{clip-path:url(#SVGID_2_);fill:#F09473;}
	.st76{clip-path:url(#SVGID_2_);fill:#F09372;}
	.st77{clip-path:url(#SVGID_2_);fill:#F09271;}
	.st78{clip-path:url(#SVGID_2_);fill:#F09170;}
	.st79{clip-path:url(#SVGID_2_);fill:#F0906F;}
	.st80{clip-path:url(#SVGID_2_);fill:#F08F6F;}
	.st81{clip-path:url(#SVGID_2_);fill:#F08E6E;}
	.st82{clip-path:url(#SVGID_2_);fill:#F08E6D;}
	.st83{clip-path:url(#SVGID_2_);fill:#EF8D6C;}
	.st84{clip-path:url(#SVGID_2_);fill:#EF8C6B;}
	.st85{clip-path:url(#SVGID_2_);fill:#EF8B6A;}
	.st86{clip-path:url(#SVGID_2_);fill:#EF8A69;}
	.st87{clip-path:url(#SVGID_2_);fill:#EF8968;}
	.st88{clip-path:url(#SVGID_2_);fill:#EF8867;}
	.st89{clip-path:url(#SVGID_2_);fill:#EF8766;}
	.st90{clip-path:url(#SVGID_2_);fill:#EF8665;}
	.st91{clip-path:url(#SVGID_2_);fill:#EF8564;}
	.st92{clip-path:url(#SVGID_2_);fill:#EE8463;}
	.st93{clip-path:url(#SVGID_2_);fill:#EE8362;}
	.st94{clip-path:url(#SVGID_2_);fill:#EE8261;}
	.st95{clip-path:url(#SVGID_2_);fill:#EE8160;}
	.st96{clip-path:url(#SVGID_2_);fill:#EE805F;}
	.st97{clip-path:url(#SVGID_2_);fill:#EE7F5E;}
	.st98{clip-path:url(#SVGID_2_);fill:#EE7E5D;}
	.st99{clip-path:url(#SVGID_2_);fill:#EE7D5D;}
	.st100{clip-path:url(#SVGID_2_);fill:#EE7C5C;}
	.st101{clip-path:url(#SVGID_2_);fill:#ED7C5B;}
	.st102{clip-path:url(#SVGID_2_);fill:#ED7B5A;}
	.st103{clip-path:url(#SVGID_2_);fill:#ED7A59;}
	.st104{clip-path:url(#SVGID_2_);fill:#ED7958;}
	.st105{clip-path:url(#SVGID_2_);fill:#ED7857;}
	.st106{clip-path:url(#SVGID_2_);fill:#ED7757;}
	.st107{clip-path:url(#SVGID_2_);fill:#ED7656;}
	.st108{clip-path:url(#SVGID_2_);fill:#ED7555;}
	.st109{clip-path:url(#SVGID_2_);fill:#ED7454;}
	.st110{clip-path:url(#SVGID_2_);fill:#ED7353;}
	.st111{clip-path:url(#SVGID_2_);fill:#ED7352;}
	.st112{clip-path:url(#SVGID_2_);fill:#ED7252;}
	.st113{clip-path:url(#SVGID_2_);fill:#EC7151;}
	.st114{clip-path:url(#SVGID_2_);fill:#EC7050;}
	.st115{clip-path:url(#SVGID_2_);fill:#EC6F4F;}
	.st116{clip-path:url(#SVGID_2_);fill:#EC6E4E;}
	.st117{clip-path:url(#SVGID_2_);fill:#EC6D4E;}
	.st118{clip-path:url(#SVGID_2_);fill:#EC6C4D;}
	.st119{clip-path:url(#SVGID_2_);fill:#EC6B4C;}
	.st120{clip-path:url(#SVGID_2_);fill:#EC6A4B;}
	.st121{clip-path:url(#SVGID_2_);fill:#EC694A;}
	.st122{clip-path:url(#SVGID_2_);fill:#EC684A;}
	.st123{clip-path:url(#SVGID_2_);fill:#EC6749;}
	.st124{clip-path:url(#SVGID_2_);fill:#EB6648;}
	.st125{clip-path:url(#SVGID_2_);fill:#EB6547;}
	.st126{clip-path:url(#SVGID_2_);fill:#EB6447;}
	.st127{clip-path:url(#SVGID_2_);fill:#EB6446;}
	.st128{clip-path:url(#SVGID_2_);fill:#EB6345;}
	.st129{clip-path:url(#SVGID_2_);fill:#EB6244;}
	.st130{clip-path:url(#SVGID_2_);fill:#EB6144;}
	.st131{clip-path:url(#SVGID_2_);fill:#EB6043;}
	.st132{clip-path:url(#SVGID_2_);fill:#EB5F42;}
	.st133{clip-path:url(#SVGID_2_);fill:#EB5E41;}
	.st134{clip-path:url(#SVGID_2_);fill:#EA5D41;}
	.st135{clip-path:url(#SVGID_2_);fill:#EA5C40;}
	.st136{clip-path:url(#SVGID_2_);fill:#EA5B3F;}
	.st137{clip-path:url(#SVGID_2_);fill:#EA5A3E;}
	.st138{clip-path:url(#SVGID_2_);fill:#EA593E;}
	.st139{clip-path:url(#SVGID_2_);fill:#EA583D;}
	.st140{clip-path:url(#SVGID_2_);fill:#EA573C;}
	.st141{clip-path:url(#SVGID_2_);fill:#EA563C;}
	.st142{clip-path:url(#SVGID_2_);fill:#EA553B;}
	.st143{clip-path:url(#SVGID_2_);fill:#EA543A;}
	.st144{clip-path:url(#SVGID_2_);fill:#EA533A;}
	.st145{clip-path:url(#SVGID_2_);fill:#EA5239;}
	.st146{clip-path:url(#SVGID_2_);fill:#EA5138;}
	.st147{clip-path:url(#SVGID_2_);fill:#EA5038;}
	.st148{clip-path:url(#SVGID_2_);fill:#E94F37;}
	.st149{clip-path:url(#SVGID_2_);fill:#E94E36;}
	.st150{clip-path:url(#SVGID_2_);fill:#E94D36;}
	.st151{clip-path:url(#SVGID_2_);fill:#E94C35;}
	.st152{clip-path:url(#SVGID_2_);fill:#E94A34;}
	.st153{clip-path:url(#SVGID_2_);fill:#E94934;}
	.st154{clip-path:url(#SVGID_2_);fill:#E94833;}
	.st155{clip-path:url(#SVGID_2_);fill:#E94733;}
	.st156{clip-path:url(#SVGID_2_);fill:#E94632;}
	.st157{clip-path:url(#SVGID_2_);fill:#E94531;}
	.st158{fill:#EA5514;}
</style>
<g>
	<g>
		<path class="st0" d="M104.8,179l3.9,6.9l-8.3,6.7l-5.4-7.2c0,0,0.5-4.4,3-6.5C100.5,176.7,104.8,179,104.8,179z"/>
		<path d="M100.4,194.1c-0.1,0-0.1,0-0.2,0c-0.4-0.1-0.8-0.3-1-0.6l-5.4-7.2c-0.2-0.3-0.3-0.7-0.3-1.1c0-0.2,0.6-4.9,3.5-7.4
			c3.2-2.8,8.2-0.2,8.4-0.1c0.3,0.1,0.5,0.3,0.6,0.6l3.9,6.9c0.4,0.6,0.2,1.4-0.4,1.9l-8.3,6.7C101.1,194,100.8,194.1,100.4,194.1z
			 M96.6,185l4.1,5.5l6.2-5l-3.1-5.4c-0.9-0.4-3.4-1.3-4.8-0.1C97.6,181.2,96.9,183.6,96.6,185z"/>
	</g>
	<g>
		<path class="st1" d="M68,163.2h27c0,0,8.9,7.2,10.2,9.9s0,3.3,0,3.3L93,187.2l-1.6-0.7c0,0,0.9,4.4-1.4,7
			c-2.3,2.6-4.3,3.9-4.3,3.9s4.9,2,5.6,6.9c0.7,4.9-3.3,16.4-3.3,16.4s-1.3,3.6-4.9,3.3c-3.6-0.3-4.6-2.6-4.6-2.6s-0.7-4.3-1.3-6.6
			c-0.7-2.3-2-4.6-4.3-5.3c-2.3-0.7-3.9,0-3.9,0h-1.3c0,0-2.3-0.7-4.6,0c-2.3,0.7-3.6,3-4.3,5.3c-0.7,2.3-1.3,6.6-1.3,6.6
			s-1,2.3-4.6,2.6c-3.6,0.3-4.9-3.3-4.9-3.3s-3.9-11.5-3.3-16.4c0.7-4.9,5.6-6.9,5.6-6.9s-2-1.3-4.3-3.9c-2.3-2.6-1.4-7-1.4-7
			l-1.6,0.7l-12.2-10.9c0,0-1.3-0.7,0-3.3c1.3-2.6,10.2-9.9,10.2-9.9H68"/>
	</g>
	<g>
		<path class="st2" d="M85.8,197.4H50.2c0,0-4.9,2-5.6,6.9c-0.7,4.9,3.3,16.4,3.3,16.4s1.3,3.6,4.9,3.3c3.6-0.3,4.6-2.6,4.6-2.6
			s0.7-4.3,1.3-6.6c0.7-2.3,2-4.6,4.3-5.3c2.3-0.7,4.6,0,4.6,0H69c0,0,1.6-0.7,3.9,0c2.3,0.7,3.6,3,4.3,5.3c0.7,2.3,1.3,6.6,1.3,6.6
			s1,2.3,4.6,2.6c3.6,0.3,4.9-3.3,4.9-3.3s3.9-11.5,3.3-16.4C90.7,199.4,85.8,197.4,85.8,197.4z"/>
	</g>
	<g>
		<path d="M83.6,225.5c-0.2,0-0.4,0-0.6,0c-4.4-0.4-5.8-3.4-5.8-3.5c0-0.1-0.1-0.2-0.1-0.4c0,0-0.7-4.2-1.3-6.4
			c-0.4-1.3-1.3-3.7-3.3-4.2c-1.7-0.5-3-0.1-3,0c-0.2,0.1-0.4,0.1-0.5,0.1h-1.3c-0.1,0-0.3,0-0.4-0.1c0,0-1.9-0.5-3.8,0
			c-1.9,0.6-2.9,2.9-3.3,4.2c-0.6,2.2-1.3,6.4-1.3,6.4c0,0.1-0.1,0.2-0.1,0.4c-0.1,0.1-1.4,3.1-5.8,3.5c-3.8,0.3-5.9-2.6-6.5-4.3
			c-0.2-0.5-4.1-11.9-3.4-17.1c0.5-3.5,2.7-5.7,4.4-6.9c-0.8-0.7-1.7-1.6-2.8-2.8c-1.5-1.7-1.9-4-1.9-5.7c-0.3,0-0.6-0.1-0.9-0.4
			l-12.1-10.8c-0.3-0.2-0.7-0.6-1-1.4c-0.3-1-0.2-2.3,0.6-3.8c1.4-2.8,9.1-9.1,10.6-10.4c0.3-0.2,0.6-0.3,0.9-0.3H95
			c0.3,0,0.7,0.1,0.9,0.3c1.5,1.2,9.2,7.6,10.6,10.4c0.7,1.5,0.9,2.7,0.6,3.8c-0.2,0.7-0.7,1.2-1,1.4L94,188.3
			c-0.3,0.2-0.6,0.4-0.9,0.4c0,1.7-0.4,4-1.9,5.7c-1,1.2-2,2.1-2.8,2.8c1.7,1.2,4,3.4,4.4,6.9c0.7,5.2-3.2,16.6-3.4,17.1
			C88.9,222.8,87,225.5,83.6,225.5z M79.9,220.9c0.2,0.3,1.1,1.4,3.3,1.6c2.4,0.2,3.3-2.1,3.4-2.3c1.1-3.1,3.7-12,3.2-15.7
			c-0.5-4-4.6-5.7-4.7-5.7c-0.5-0.2-0.9-0.7-0.9-1.2c-0.1-0.5,0.2-1.1,0.6-1.4c0,0,1.9-1.3,4-3.7c1.8-2,1.1-5.7,1.1-5.7
			c-0.1-0.5,0.1-1.1,0.5-1.5c0.4-0.3,1-0.4,1.5-0.2l0.7,0.3l11.4-10.2c0,0,0.1,0,0.1-0.1c0-0.1,0-0.6-0.4-1.5c-0.8-1.6-6-6.3-9.4-9
			H41.6c-3.4,2.8-8.6,7.4-9.4,9c-0.4,0.9-0.4,1.3-0.4,1.5c0,0,0.1,0,0.1,0.1l11.4,10.2l0.7-0.3c0.5-0.2,1.1-0.2,1.5,0.2
			c0.4,0.3,0.6,0.9,0.5,1.5c0,0-0.7,3.7,1.1,5.7c2.1,2.4,4,3.7,4,3.7c0.5,0.3,0.7,0.8,0.6,1.4c-0.1,0.5-0.4,1-0.9,1.2
			c0,0-4.1,1.7-4.7,5.7c-0.5,3.8,2.2,12.7,3.2,15.8c0.1,0.2,1,2.5,3.4,2.3c2.2-0.2,3.1-1.3,3.3-1.6c0.2-1,0.7-4.4,1.3-6.5
			c1-3.3,2.8-5.6,5.3-6.3c2.3-0.6,4.5-0.2,5.2-0.1h0.9c0.7-0.2,2.4-0.6,4.6,0.1c2.5,0.7,4.3,2.9,5.3,6.3
			C79.2,216.5,79.8,219.9,79.9,220.9z M104.5,175L104.5,175L104.5,175z M104.5,175C104.5,175,104.5,175,104.5,175
			C104.5,175,104.5,175,104.5,175z M31.5,175C31.5,175,31.5,175,31.5,175C31.5,175,31.5,175,31.5,175z M31.5,175
			C31.5,175,31.5,175,31.5,175C31.5,175,31.5,175,31.5,175z M104.5,175C104.5,175,104.5,175,104.5,175
			C104.5,175,104.5,175,104.5,175z"/>
	</g>
	<g>
		<path class="st3" d="M47.9,220.7c0,0-3.5-3.6-7.4-3.5c-3.9,0.2-8.5,2.8-6.7,7.2c1.8,4.4,3.3,4.8,8.1,4.9c4.8,0.2,6.6-0.2,6.6-0.2
			s10.7,1.2,12.3-2c1.6-3.1,0.7-4.9-0.7-5.9c-1.3-1-2.1-1-2.1-1L47.9,220.7z"/>
		<path class="st4" d="M52.7,230c-2,0-3.7-0.2-4.3-0.2c-0.4,0.1-2.3,0.3-6.6,0.2c-4.8-0.2-6.6-0.5-8.5-5.2c-0.7-1.7-0.6-3.2,0.3-4.6
			c1.4-2.2,4.5-3.2,6.9-3.3c3.7-0.2,6.9,2.7,7.6,3.4l9.8-0.3c0,0,0,0,0,0c0.1,0,1,0,2.4,1.1c1.1,0.9,2.7,2.8,0.8,6.5
			C60.1,229.6,56,230,52.7,230z M48.4,228.8L48.4,228.8c2.9,0.3,10.7,0.6,11.9-1.7c1.2-2.3,1.1-4.1-0.5-5.3
			c-1.1-0.9-1.8-0.9-1.9-0.9l-10.2,0.3l-0.2-0.2c0,0-3.3-3.5-7-3.3c-2.2,0.1-4.9,1-6.1,2.9c-0.7,1.1-0.8,2.3-0.2,3.7
			c1.7,4.3,3,4.5,7.6,4.6C46.5,229.1,48.3,228.8,48.4,228.8L48.4,228.8z"/>
	</g>
	<g>
		<path class="st3" d="M88.1,220.7c0,0,3.5-3.6,7.4-3.5c3.9,0.2,8.5,2.8,6.7,7.2c-1.8,4.4-3.3,4.8-8.1,4.9c-4.8,0.2-6.6-0.2-6.6-0.2
			s-10.7,1.2-12.3-2c-1.6-3.1-0.7-4.9,0.7-5.9c1.3-1,2.1-1,2.1-1L88.1,220.7z"/>
		<path class="st4" d="M83.3,230c-3.3,0-7.4-0.4-8.5-2.5c-2-3.7-0.3-5.7,0.8-6.5c1.4-1.1,2.3-1.1,2.4-1.1l9.8,0.3
			c0.7-0.7,4-3.6,7.6-3.4c2.4,0.1,5.5,1.2,6.9,3.3c0.9,1.3,1,2.9,0.3,4.6c-1.9,4.8-3.7,5.1-8.5,5.2c-4.3,0.1-6.2-0.1-6.6-0.2
			C87,229.8,85.3,230,83.3,230z M78,220.9c0,0-0.7,0-1.8,0.9c-1.6,1.2-1.7,3-0.5,5.3c1.2,2.3,9,2,11.8,1.7l0.1,0l0.1,0
			c0,0,1.8,0.3,6.5,0.2c4.6-0.2,5.9-0.4,7.6-4.6c0.6-1.4,0.5-2.6-0.2-3.7c-1.2-1.9-3.9-2.8-6.1-2.9c-3.7-0.2-7,3.3-7,3.3l-0.2,0.2
			L78,220.9z"/>
	</g>
	<g>
		<path class="st0" d="M34.1,179l-7.9-3.9l-0.7,12.1l7.7,2.5c0,0,7.1,2.1,7.5-1.1C41.1,185.3,34.1,179,34.1,179z"/>
		<path d="M37.5,191.8c-2.1,0-4.2-0.6-4.7-0.8l-7.7-2.5c-0.6-0.2-1.1-0.8-1-1.5l0.7-12.1c0-0.5,0.3-0.9,0.7-1.2
			c0.4-0.2,1-0.3,1.4-0.1l7.9,3.9c0.1,0.1,0.2,0.1,0.3,0.2c1.3,1.1,7.5,7,7.1,10.8c-0.1,1-0.6,1.8-1.4,2.3
			C39.9,191.6,38.7,191.8,37.5,191.8z M27.1,186.1l6.6,2.1c1.7,0.5,4.6,0.9,5.5,0.3c0.1-0.1,0.1-0.1,0.1-0.2
			c0.2-1.5-2.9-5.4-5.9-8.1l-5.8-2.8L27.1,186.1z"/>
	</g>
	<g>
		<path class="st0" d="M30.8,179.6c0,0-2.4-6.7-8.1-7.6c-2.3-0.3-7.3,1.2-8,7.6c-0.7,6.6,1.9,8.6,4,10.5c1.5,1.3,4.5,1.6,6.7,1.1
			c2-0.5,4.7-2.3,4.7-2.3"/>
		<path d="M23.3,192.9c-2,0-4.1-0.5-5.5-1.7c-2.3-1.9-5.3-4.4-4.5-11.7c0.4-3.8,2.2-5.9,3.6-7.1c2.1-1.7,4.6-2,6.1-1.8
			c6.6,0.9,9.2,8.2,9.3,8.5c0.3,0.8-0.1,1.6-0.9,1.9c-0.8,0.3-1.6-0.1-1.9-0.9l0,0c0-0.1-2.2-5.9-6.9-6.6c-0.9-0.1-2.5,0.2-3.8,1.2
			c-1.4,1.1-2.2,2.8-2.5,5c-0.6,5.7,1.4,7.4,3.4,9.1c1.1,0.9,3.6,1.3,5.5,0.8c1.5-0.4,3.5-1.6,4.2-2.1c0.7-0.5,1.6-0.3,2.1,0.4
			c0.5,0.7,0.3,1.6-0.4,2.1c-0.1,0.1-2.9,2-5.2,2.5C25.1,192.8,24.2,192.9,23.3,192.9z"/>
	</g>
	<g>
		<path class="st0" d="M107.5,183.9c0,0,7,4,7.6,8.6c1,8.2-4.6,9.5-7.2,9.5c-4.3,0-8.2-4.8-9-6.9c-0.7-2-0.7-5.2-0.7-5.2"/>
		<path d="M107.8,203.5c-4.9,0-9.4-5.1-10.4-7.9c-0.8-2.2-0.8-5.6-0.8-5.7c0-0.8,0.7-1.5,1.5-1.5h0c0.8,0,1.5,0.7,1.5,1.5
			c0,0.8,0.1,3.3,0.6,4.7c0.6,1.7,4.1,5.9,7.7,5.9c0.7,0,3-0.1,4.5-1.8c1.2-1.3,1.6-3.4,1.3-6.1c-0.4-3.1-5.1-6.4-6.8-7.4
			c-0.7-0.4-1-1.3-0.5-2c0.4-0.7,1.3-1,2-0.5c0.8,0.5,7.7,4.6,8.3,9.7c0.4,3.6-0.2,6.4-2,8.4C112.3,203.2,109.1,203.5,107.8,203.5z"
			/>
	</g>
	<g>
		<path class="st0" d="M98.6,190.1c0,0-2,9.5,1.6,10.5c5.7,1.6,3.6-4.6,3.6-4.6"/>
		<path d="M101.9,202.4c-0.6,0-1.3-0.1-2-0.3c-4.7-1.3-3.1-10.4-2.7-12.3c0.2-0.8,1-1.3,1.7-1.1c0.8,0.2,1.3,0.9,1.2,1.7
			c-0.8,3.9-0.7,8.4,0.6,8.8c1.1,0.3,1.7,0.2,1.9,0c0.4-0.4,0.3-1.8-0.1-2.7c-0.3-0.8,0.2-1.6,0.9-1.9c0.8-0.3,1.6,0.2,1.9,0.9
			c0.2,0.6,1.2,3.8-0.6,5.7C104,202,103,202.4,101.9,202.4z"/>
	</g>
	<g>
		<path class="st0" d="M31.2,182.6c0,0,2.3-4.3-2-8.6c-2.1-2.1-6.6-1-7.6,2c-1.1,3.2,3.3,3.6,3.3,3.6s-1,6.6,1.6,6.6"/>
		<path d="M26.6,186.9c-0.6,0-1.2-0.2-1.6-0.7c-1.2-1.4-1-4.5-0.9-6c-0.9-0.2-2.2-0.7-2.9-1.8c-0.3-0.5-0.7-1.4-0.2-2.7
			c0.5-1.6,2.1-2.9,4-3.4c1.8-0.4,3.6,0,4.7,1.1c4.6,4.6,2.1,9.3,2.1,9.4c-0.2,0.3-0.6,0.5-0.9,0.3c-0.3-0.2-0.5-0.6-0.3-0.9
			c0.1-0.2,2-3.9-1.9-7.7c-0.8-0.8-2.1-1.1-3.4-0.8c-1.4,0.3-2.6,1.3-3,2.5c-0.2,0.6-0.2,1.1,0.1,1.5c0.5,0.9,2.1,1.2,2.6,1.2
			c0.2,0,0.4,0.1,0.5,0.3c0.1,0.2,0.2,0.3,0.1,0.5c-0.2,1.7-0.3,4.6,0.5,5.5c0.1,0.2,0.3,0.2,0.5,0.2c0.4,0,0.7,0.3,0.7,0.7
			C27.3,186.6,27,186.9,26.6,186.9z"/>
	</g>
	<g>
		<g>
			<ellipse class="st5" cx="64.7" cy="184.4" rx="1" ry="0.9"/>
			<ellipse class="st5" cx="72.1" cy="184.4" rx="1" ry="0.9"/>
			<path class="st5" d="M68.3,187c-4.7,0-4.2,3.6-4.2,3.6c1.8,0,4.2-1.6,4.2-1.6s2.4,1.7,4.2,1.6C72.6,190.6,73,187,68.3,187z"/>
			<path class="st5" d="M68.9,171.9c0,0,0-0.1,0-0.1c0-0.2-0.2-0.4-0.5-0.4c-0.3,0-0.5,0.2-0.5,0.4c0,0,0,0.1,0,0.1
				c-6.5-0.2-5.9,6.9-5.9,6.9s0,0,0.1,0l-3.2,1.6c0,0,0.1,1,4.6,0.9c4.7-0.1,8.3-2,8.7-2.2c1.7-0.1,2.8-0.3,2.8-0.3
				S75.5,171.8,68.9,171.9z"/>
		</g>
		<g>
			<path class="st1" d="M64.3,175.1H65c-0.2,0.5-0.4,0.8-0.5,1c0,0,0,0,0.1,0c0,0,0.1,0,0.1,0c0.2,0,0.4,0.1,0.5,0.2
				c0.1,0.2,0.2,0.4,0.2,0.6c0,0.3-0.1,0.5-0.3,0.7c-0.2,0.2-0.4,0.3-0.7,0.3c-0.3,0-0.5-0.1-0.7-0.3c-0.2-0.2-0.3-0.4-0.3-0.7
				c0-0.3,0.2-0.8,0.5-1.5L64.3,175.1z M64.5,177.4c0.1,0,0.2,0,0.2-0.1c0.1-0.1,0.1-0.2,0.1-0.3c0-0.1,0-0.2-0.1-0.3
				s-0.1-0.1-0.2-0.1c-0.1,0-0.2,0-0.2,0.1c-0.1,0.1-0.1,0.2-0.1,0.3c0,0.1,0,0.2,0.1,0.3C64.4,177.3,64.4,177.4,64.5,177.4
				L64.5,177.4z"/>
			<path class="st1" d="M66.7,175c0.3,0,0.6,0.1,0.7,0.4c0.2,0.2,0.2,0.6,0.2,1.1c0,0.5-0.1,0.8-0.2,1.1c-0.2,0.2-0.4,0.4-0.7,0.4
				c-0.3,0-0.5-0.1-0.7-0.3c-0.2-0.2-0.3-0.6-0.3-1.1c0-0.5,0.1-0.8,0.2-1.1C66.2,175.1,66.4,175,66.7,175L66.7,175z M66.4,176.4
				c0,0.6,0.1,0.9,0.3,0.9c0.1,0,0.2-0.1,0.2-0.2c0.1-0.1,0.1-0.3,0.1-0.6c0-0.3,0-0.5-0.1-0.7c-0.1-0.1-0.1-0.2-0.3-0.2
				C66.5,175.6,66.4,175.9,66.4,176.4z"/>
		</g>
	</g>
	<g>
		<g>
			<path class="st6" d="M36.9,166.5c0,0-5.1,1.8-6.1,0.8c-1-1,1-7.9,1-7.9s-4.9,0.7-6.1-1.2c-1.2-1.8,1.6-4.9,1.6-4.9
				s-3.5-4.9-3-6.4c0.5-1.5,8.1-4.6,8.1-4.6s-1-8.9-2.3-11.8c-1.3-3,0.5-5.8,0.5-5.8s-6.4-2.8-5.9-5.3s8.7-7.4,8.7-7.4
				s-5.4-1.5-4.3-4.9c1.2-3.5,10-3.6,10-3.6s-6.7-2.8-5.1-5.3c1.6-2.5,12.8-1.2,12.8-1.2s-2.8-5.9,4.3-5.6
				c7.1,0.3,15.5,4.6,15.5,4.6s1-3.1,5.1-3c4.1,0.2,17.9,7.9,17.9,7.9s11-4.9,14.5-1.5s-0.8,5.8-0.8,5.8s7.1,4.3,7.2,7.1
				c0.2,2.8-2.5,3.3-2.5,3.3s5.8,4.9,4.4,7.4c-1.3,2.5-3.3,3.3-3.3,3.3s2,2.6,1.3,3.9c-0.7,1.3-9.5,9.4-9.5,9.4s9.7,3.1,9.7,5.6
				c0,2.5,0,2.5,0,2.5l-3.6,3c0,0,4.9,4.3,4.3,6.2c-0.7,2-5.3,1.3-5.3,1.3s3.3,3.3,1,5.9c-2.3,2.6-7.6,0.7-7.6,0.7L36.9,166.5z"/>
			<path class="st4" d="M32.1,169.1c-1,0-1.8-0.2-2.3-0.7c-0.4-0.4-1.4-1.4,0.1-7.3c-1.9,0-4.3-0.3-5.4-2c-1.3-2,0.1-4.4,1.1-5.8
				c-1.6-2.4-3.1-5.2-2.5-6.8c0.4-1.3,3.1-3,7.9-5.1c-0.4-2.9-1.2-8.3-2.1-10.3c-1-2.2-0.6-4.3-0.1-5.6c-2.3-1.2-6-3.5-5.4-6.3
				c0.4-2.1,4.1-5,7-6.9c-0.9-0.5-1.8-1.3-2.3-2.3c-0.6-1-0.6-2.2-0.3-3.4c0.8-2.4,3.9-3.6,6.7-4.1c-0.9-0.7-1.7-1.6-2-2.6
				c-0.3-0.9-0.1-1.7,0.4-2.5c1.6-2.4,7.9-2.4,12.1-2c-0.1-1,0-2.2,0.7-3.3c1-1.5,2.9-2.2,5.6-2.1c5.7,0.3,12.1,2.9,14.8,4.2
				c1-1.3,2.8-2.6,5.8-2.5c4,0.2,14.9,6.1,17.9,7.7c3-1.3,11.8-4.5,15.4-0.9c1.7,1.7,1.9,3.3,1.7,4.3c-0.1,1-0.6,1.7-1.1,2.3
				c2.5,1.7,6.1,4.6,6.2,7.1c0.1,1.7-0.6,2.9-1.4,3.7c2,2,4.6,5.3,3.2,7.8c-0.8,1.5-1.7,2.4-2.5,3.1c0.6,1.2,1.2,2.8,0.6,4.1
				c-0.6,1.1-4.7,5.1-8,8.1c4.2,1.6,8.3,3.7,8.3,6.2v2.5c0,0.4-0.2,0.9-0.5,1.1l-2.3,1.9c2,1.9,4.1,4.6,3.4,6.7
				c-0.5,1.6-2.3,2.2-3.9,2.4c0.7,1.6,0.8,3.6-0.7,5.4c-2.6,3-7.6,1.6-8.9,1.2l-62.1,1.6C35.1,168.7,33.4,169.1,32.1,169.1z
				 M32.1,166.5L32.1,166.5L32.1,166.5z M31.8,157.9c0.4,0,0.8,0.2,1.1,0.5c0.3,0.4,0.4,0.9,0.3,1.4c-0.7,2.5-1.2,5.2-1.2,6.3
				c0.9,0,2.8-0.5,4.4-1c0.1-0.1,0.3-0.1,0.5-0.1l62.6-1.6c0.2,0,0.4,0,0.6,0.1c1.1,0.4,4.6,1.3,5.9-0.2c1.4-1.6-0.8-3.8-0.9-3.9
				c-0.4-0.5-0.6-1.1-0.3-1.7c0.3-0.6,0.9-0.9,1.5-0.8c1.7,0.2,3.4,0,3.7-0.3c0-0.6-1.8-2.9-3.9-4.6c-0.3-0.3-0.5-0.7-0.5-1.1
				c0-0.4,0.2-0.8,0.5-1.1l3.1-2.5v-1.7c-0.5-0.9-4.6-3-8.7-4.3c-0.5-0.2-0.9-0.6-1-1.1c-0.1-0.5,0.1-1.1,0.5-1.4
				c4-3.7,8.5-7.9,9.2-8.9c0-0.4-0.5-1.6-1.2-2.4c-0.3-0.4-0.4-0.8-0.2-1.3c0.1-0.4,0.4-0.8,0.9-1c0,0,1.5-0.7,2.6-2.6
				c0.3-0.6-1.5-3.3-4.1-5.6c-0.4-0.4-0.6-1-0.5-1.5s0.6-1,1.2-1.1c0.4-0.1,1.3-0.4,1.3-1.7c-0.1-1.2-3.5-4.1-6.5-5.9
				c-0.5-0.3-0.7-0.8-0.7-1.3c0-0.5,0.3-1,0.8-1.3c0.3-0.2,1.3-0.9,1.4-1.6c0.1-0.6-0.4-1.3-0.9-1.8c-1.9-1.9-8.6-0.1-12.8,1.8
				c-0.4,0.2-0.9,0.2-1.3-0.1c-5.2-2.9-14.5-7.6-17.3-7.7c-2.8-0.1-3.6,1.7-3.6,1.9c-0.1,0.4-0.5,0.7-0.9,0.9
				c-0.4,0.2-0.8,0.1-1.2,0c-0.1,0-8.2-4.1-14.8-4.4c-1.6-0.1-2.7,0.2-3,0.8c-0.5,0.7-0.1,2.1,0.2,2.7c0.2,0.5,0.2,1.1-0.1,1.5
				c-0.3,0.4-0.8,0.7-1.4,0.6c-5.2-0.6-10.7-0.4-11.4,0.5c0.1,0.6,2.1,2.1,4.4,3.1c0.6,0.3,1,1,0.9,1.6c-0.1,0.7-0.7,1.2-1.4,1.2
				c-3.3,0.1-8.1,1-8.7,2.6c-0.1,0.4-0.1,0.7,0.1,1c0.6,1.1,2.6,1.8,3.2,2c0.6,0.2,1,0.6,1.1,1.2c0.1,0.6-0.2,1.2-0.7,1.5
				c-4,2.4-7.8,5.4-8,6.4c0,0.6,2.3,2.4,5.1,3.6c0.4,0.2,0.7,0.5,0.8,0.9c0.1,0.4,0.1,0.9-0.2,1.2c-0.1,0.1-1.3,2.2-0.4,4.3
				c1.4,3.1,2.3,11.3,2.4,12.3c0.1,0.7-0.3,1.3-0.9,1.5c-2.9,1.2-6.4,2.9-7.2,3.7c0.1,0.8,1.4,3.1,2.7,5.1c0.4,0.6,0.3,1.3-0.1,1.8
				c-1,1.1-1.8,2.7-1.5,3.2c0.3,0.5,2.5,0.8,4.6,0.5C31.7,157.9,31.8,157.9,31.8,157.9z M31.6,166.1L31.6,166.1z M25.8,147.5
				L25.8,147.5L25.8,147.5z M25.9,147.2L25.9,147.2z"/>
		</g>
		<g>
			<path class="st0" d="M39.4,135.2c0,0-4.3-8.2-9.2-4.8c-4.9,3.5-0.7,13,1.6,16s5.3,3,5.3,3"/>
			<path d="M37.1,150.8c-0.2,0-3.7,0-6.4-3.5c-1.6-2.1-4.9-8.3-4.1-13.3c0.3-2.1,1.3-3.7,2.8-4.7c1.4-1,3.1-1.3,4.7-1
				c3.9,0.9,6.4,5.7,6.7,6.3c0.4,0.7,0.1,1.6-0.6,2c-0.7,0.4-1.6,0.1-2-0.6l0,0c-0.6-1.1-2.6-4.2-4.8-4.7c-0.8-0.2-1.5,0-2.3,0.5
				c-0.9,0.6-1.4,1.5-1.6,2.8c-0.6,3.8,2.1,9.2,3.5,11.1c1.8,2.3,4.1,2.4,4.1,2.4c0.8,0,1.5,0.7,1.5,1.5S37.9,150.8,37.1,150.8z"/>
		</g>
		<g>
			<path class="st0" d="M96.6,135.2c0,0,4.3-8.2,9.2-4.8c4.9,3.5,0.7,13-1.6,16c-2.3,3-5.3,3-5.3,3"/>
			<path d="M98.9,150.8c-0.8,0-1.5-0.7-1.5-1.5s0.7-1.5,1.5-1.5c0.1,0,2.3-0.1,4.1-2.4c1.5-1.9,4.1-7.3,3.5-11.1
				c-0.2-1.2-0.7-2.1-1.6-2.8c-0.8-0.5-1.5-0.7-2.3-0.5c-2.2,0.5-4.2,3.6-4.8,4.7c-0.4,0.7-1.3,1-2,0.6c-0.7-0.4-1-1.3-0.6-2
				c0.3-0.5,2.9-5.3,6.7-6.3c1.6-0.4,3.2-0.1,4.7,1c1.5,1.1,2.5,2.7,2.8,4.7c0.8,5-2.5,11.3-4.1,13.3
				C102.6,150.8,99.1,150.8,98.9,150.8z"/>
		</g>
		<g>
			<path class="st0" d="M97.6,130.5c0,0-1,11.3,0,15.8c1,4.4,5.9,13.8,1.5,20.2c-4.4,6.4-11.3,7.9-18.2,7.4
				c-6.9-0.5-9.4-1.5-12.8-1.5h-1c-3.5,0-4.9,1-11.8,1.5c-6.9,0.5-13.8-1-18.2-7.4c-4.4-6.4,0.5-15.8,1.5-20.2
				c1-4.4-0.3-17.9-0.3-17.9S34.8,100,69,100C103.2,100,97.6,130.5,97.6,130.5z"/>
			<path d="M83.2,175.4c-0.8,0-1.6,0-2.5-0.1c-3.6-0.3-6-0.7-8-1c-1.8-0.3-3.2-0.5-4.7-0.5h-1c-1.5,0-2.6,0.2-4.1,0.5
				c-1.7,0.3-3.9,0.7-7.6,1c-8.9,0.6-15.4-2.1-19.6-8c-3.9-5.6-1.4-13.1,0.2-18.1c0.4-1.3,0.8-2.4,1-3.3c0.8-3.5,0-13.8-0.4-17.5
				c-0.1-0.5-1.3-11.8,6.5-20.5c5.6-6.3,14.3-9.5,25.9-9.5c11.1,0,19.4,3.1,24.6,9.4c7.6,9.1,5.7,21.5,5.5,22.7
				c-0.1,0.9-0.9,11.3,0,15.3c0.2,0.9,0.6,2,1,3.3c1.7,4.9,4.1,12.4,0.2,18.1C96.6,172.7,90.8,175.4,83.2,175.4z M67,170.9h1
				c1.8,0,3.3,0.2,5.2,0.5c1.9,0.3,4.2,0.7,7.7,0.9c7.9,0.6,13.4-1.7,16.9-6.8c3.1-4.4,0.9-10.8-0.6-15.4c-0.5-1.4-0.9-2.6-1.1-3.6
				c-1-4.6-0.1-15.8,0-16.2c0,0,0-0.1,0-0.1c0-0.1,2.1-12.1-4.9-20.4c-4.6-5.5-12.1-8.3-22.3-8.3c-10.7,0-18.7,2.8-23.7,8.4
				c-6.9,7.7-5.8,18.1-5.7,18.2c0.1,0.6,1.3,13.8,0.3,18.4c-0.2,1-0.6,2.2-1.1,3.6c-1.6,4.6-3.7,11-0.6,15.4
				c3.5,5.1,9.1,7.3,16.9,6.8c3.5-0.3,5.6-0.6,7.3-1C64,171.1,65.2,170.9,67,170.9z"/>
		</g>
		<g>
			<path class="st4" d="M60.1,134c-0.3,0-0.5-0.2-0.6-0.4l0,0c0,0-0.9-2-2.8-2.6c-1.8-0.5-2.3-0.1-2.3-0.1c-0.3,0.3-0.7,0.3-1,0
				c-0.3-0.3-0.2-0.7,0-1c0.2-0.2,1.1-0.9,3.6-0.2c2.6,0.7,3.7,3.2,3.7,3.4c0.2,0.4,0,0.8-0.4,0.9C60.3,133.9,60.2,134,60.1,134z"/>
		</g>
		<g>
			<path class="st4" d="M60.4,133.4c0,0.8-0.6,1.4-1.4,1.4s-1.4-0.6-1.4-1.4c0-0.8,0.6-1.4,1.4-1.4S60.4,132.6,60.4,133.4z"/>
		</g>
		<g>
			<path class="st7" d="M67,169.9c3.7,0,10.1,1.7,18.7,0.7s12.1-7.4,12.1-12.8c0-5.4-10.6-12.6-13.3-12.8s-15.5,4.9-17,4.9h1
				c-1.5,0-14.3-5.2-17-4.9s-13.3,7.4-13.3,12.8c0,5.4,3.5,11.8,12.1,12.8s15-0.7,18.7-0.7"/>
			<path class="st4" d="M80.3,171.5c-3.5,0-6.6-0.4-9-0.7c-1.2-0.2-2.4-0.3-3.3-0.3c-1,0.1-2.1,0.2-3.3,0.3c-3.6,0.4-8.6,1-14.5,0.4
				c-8.6-1-12.5-7.4-12.5-13.3c0-5.8,10.9-13.1,13.8-13.3c1.7-0.2,6.9,1.6,11.4,3.2c2,0.7,4.1,1.4,5.1,1.7c1-0.2,3.1-1,5.1-1.7
				c4.5-1.6,9.7-3.3,11.4-3.2c2.8,0.3,13.8,7.5,13.8,13.3c0,5.9-3.9,12.3-12.5,13.3C83.9,171.4,82.1,171.5,80.3,171.5z M69,169.5
				c0.8,0.1,1.6,0.2,2.4,0.3c3.6,0.4,8.4,1,14.3,0.4c8-0.9,11.6-6.9,11.6-12.3c0-5.1-10.4-12.1-12.9-12.3c-1.5-0.1-7,1.7-11,3.1
				c-2.3,0.8-3.9,1.3-4.9,1.6v0.2h-1v-0.2c-1-0.3-2.6-0.8-4.9-1.6c-4-1.4-9.5-3.3-11-3.1c-2.5,0.2-12.9,7.3-12.9,12.3
				c0,5.5,3.6,11.4,11.6,12.3c5.8,0.7,10.7,0.1,14.3-0.4c0.9-0.1,1.7-0.2,2.4-0.3v-0.1c0.3,0,0.6,0,1,0c0.3,0,0.7,0,1,0V169.5z"/>
		</g>
		<g>
			<path class="st8" d="M75.9,157.6c0,0-0.2-6.4-3.2-5.9c-3,0.5-1.2,3.7-2.7,4.7s-2.5,1-3.9,0s0.2-4.2-2.7-4.7
				c-3-0.5-3.2,5.9-3.2,5.9s0.8,4.1,7.9,4.1C75.1,161.7,75.9,157.6,75.9,157.6z"/>
			<path class="st4" d="M68,162.2c-7.4,0-8.3-4.3-8.4-4.5l0-0.1l0-0.1c0-0.2,0.2-4.5,2-5.9c0.5-0.4,1.1-0.6,1.8-0.5
				c2.1,0.4,2.3,2,2.4,3.1c0.1,0.7,0.1,1.3,0.5,1.6c1.3,0.9,2.1,0.9,3.4,0c0.4-0.3,0.5-0.9,0.5-1.6c0.1-1.2,0.3-2.8,2.4-3.1
				c0.7-0.1,1.3,0,1.8,0.5c1.8,1.5,2,5.7,2,5.9l0,0.1l0,0.1C76.3,157.9,75.4,162.2,68,162.2z M60.6,157.5c0.1,0.5,1.2,3.7,7.4,3.7
				c6.2,0,7.3-3.2,7.4-3.7c-0.1-1.2-0.4-4.2-1.6-5.1c-0.3-0.2-0.6-0.3-1-0.3c-1.3,0.2-1.4,1-1.6,2.3c-0.1,0.9-0.2,1.8-1,2.4
				c-1.6,1.1-2.9,1.1-4.5,0c-0.8-0.5-0.9-1.5-1-2.4c-0.1-1.3-0.2-2-1.6-2.3c-0.4-0.1-0.7,0-1,0.3C61,153.4,60.7,156.4,60.6,157.5z"
				/>
		</g>
		<g>
			<path class="st9" d="M87.7,167c0,0-3.2-8.9-9.9-8.9c-6.7,0-9.6,2.7-9.6,2.7s-3.5-2.7-10.1-2.7s-9.9,8.9-9.9,8.9"/>
			<path class="st4" d="M87.3,167.1c0-0.1-3.2-8.6-9.4-8.6c-6.4,0-9.3,2.6-9.3,2.6l-0.3,0.3l-0.3-0.3c0,0-3.4-2.6-9.8-2.6
				c-6.2,0-9.4,8.5-9.4,8.6l-0.9-0.3c0.1-0.4,3.4-9.2,10.3-9.2c5.7,0,9.1,1.9,10.1,2.6c0.9-0.7,4-2.6,9.6-2.6
				c6.9,0,10.2,8.8,10.3,9.2L87.3,167.1z"/>
		</g>
		<g>
			<path class="st5" d="M92.4,149.4c0,0,2.2,3.9-2.2,4.9c-4.4,1-5.4-2.2-5.4-2.2s-0.7,2.7-4.9,3c-4.2,0.2-4.7-3-4.7-3
				s-0.2,3.5-3.5,3.5c-3.2,0-3.4-2.5-3.4-2.5h-0.2c0,0-0.7,2.5-3.9,2.5c-3.2,0-3.5-3.5-3.5-3.5s-0.5,3.2-4.7,3c-4.2-0.2-4.9-3-4.9-3
				s-1,3.2-5.4,2.2s-2.2-4.9-2.2-4.9s4.2-4.7,7.9-4.4c3.7,0.2,13.8,4.9,17,4.9c3.2,0,12.6-5.2,16-4.9S92.4,149.4,92.4,149.4z"/>
			<path class="st4" d="M71.7,156.1c-2.1,0-3.1-1-3.5-1.9c-0.6,0.9-1.8,1.9-3.9,1.9c-2,0-3.1-1.2-3.6-2.4c-0.7,1-2,2.1-4.6,1.9
				c-2.9-0.2-4.3-1.5-4.9-2.4c-0.7,1-2.3,2.4-5.5,1.6c-1.5-0.3-2.4-1-2.9-2c-0.7-1.7,0.3-3.6,0.4-3.7c0,0,0-0.1,0.1-0.1
				c0.2-0.2,4.4-4.9,8.3-4.6c1.9,0.1,5.3,1.3,8.7,2.5c3.3,1.2,6.8,2.4,8.3,2.4c1.4,0,4.3-1.2,7.2-2.3c3.4-1.4,6.9-2.8,8.9-2.6
				c3.6,0.3,8,4.4,8.2,4.6c0,0,0.1,0.1,0.1,0.1c0,0.1,1.1,2,0.4,3.7c-0.4,1-1.4,1.7-2.9,2c-3.2,0.7-4.8-0.6-5.5-1.6
				c-0.6,0.9-2,2.2-4.9,2.4c-2.6,0.2-3.9-0.9-4.6-1.9C74.8,154.9,73.7,156.1,71.7,156.1z M68.2,152.7h0.2c0.3,0,0.5,0.2,0.5,0.5
				c0,0.2,0.2,2,2.9,2c2.7,0,3-2.9,3-3c0-0.3,0.2-0.4,0.5-0.5c0.2,0,0.5,0.2,0.5,0.4c0,0.1,0.5,2.8,4.2,2.5c3.8-0.2,4.5-2.5,4.5-2.6
				c0.1-0.2,0.3-0.4,0.5-0.4c0.2,0,0.4,0.1,0.5,0.3c0,0.1,0.9,2.7,4.8,1.9c1.2-0.3,1.9-0.7,2.2-1.4c0.5-1.1-0.1-2.4-0.3-2.7
				c-0.5-0.5-4.5-4-7.5-4.3c-1.7-0.1-5.3,1.3-8.5,2.6c-3.1,1.2-5.9,2.4-7.5,2.4c-1.7,0-5.1-1.2-8.7-2.5c-3.3-1.2-6.6-2.4-8.4-2.5
				c-3.2-0.2-7,3.8-7.5,4.2c-0.1,0.3-0.8,1.6-0.3,2.7c0.3,0.7,1.1,1.2,2.2,1.4c3.9,0.9,4.8-1.8,4.8-1.9c0.1-0.2,0.3-0.3,0.5-0.3
				c0.2,0,0.4,0.2,0.5,0.4c0,0.1,0.7,2.4,4.5,2.6c3.7,0.2,4.2-2.4,4.2-2.5c0-0.2,0.3-0.4,0.5-0.4c0.3,0,0.5,0.2,0.5,0.5
				c0,0.1,0.3,3,3,3c2.8,0,3.4-2,3.4-2.1C67.7,152.8,67.9,152.7,68.2,152.7z"/>
		</g>
		<g>
			<path class="st6" d="M63.6,129.3c0,0-0.2-3-2.6-5.8c-2.5-2.8-5.4-4.4-7.4-4.4c-2,0-6.7,2.5-6.6,3.1s4.9,1.6,7.4,2.6
				S61.9,130,63.6,129.3z"/>
			<path class="st4" d="M63.1,129.9c-1.2,0-3.1-1.1-5.6-2.7c-1.3-0.8-2.5-1.5-3.4-1.9c-1-0.4-2.3-0.8-3.6-1.1c-3-0.9-4-1.2-4.1-1.8
				c-0.1-0.2,0-0.4,0.2-0.7c0.8-1,4.9-3.1,6.9-3.1c2.2,0,5.3,1.9,7.8,4.6c2.5,2.9,2.7,5.9,2.8,6.1c0,0.2-0.1,0.4-0.3,0.5
				C63.6,129.8,63.4,129.9,63.1,129.9z M47.6,122.1c0.6,0.3,2.1,0.8,3.3,1.1c1.3,0.4,2.6,0.8,3.7,1.2c0.9,0.4,2.2,1.1,3.5,2
				c1.7,1,3.9,2.4,5,2.5c-0.2-0.9-0.7-3-2.4-5c-2.6-3-5.4-4.3-7-4.3C51.9,119.6,48.4,121.4,47.6,122.1z"/>
		</g>
		<g>
			<path class="st4" d="M75.9,134c-0.1,0-0.2,0-0.3-0.1c-0.4-0.2-0.5-0.6-0.4-0.9c0-0.1,1.1-2.6,3.7-3.4c2.5-0.7,3.4,0,3.6,0.2
				c0.3,0.3,0.3,0.7,0,1c-0.3,0.3-0.7,0.3-1,0c0,0-0.2-0.1-0.7-0.1c-0.4,0-0.9,0.1-1.6,0.3c-2,0.6-2.8,2.5-2.8,2.6
				C76.4,133.8,76.2,134,75.9,134z"/>
		</g>
		<g>
			<circle class="st4" cx="77" cy="133.4" r="1.4"/>
		</g>
		<g>
			<path class="st6" d="M72.4,129.3c0,0,0.2-3,2.6-5.8c2.5-2.8,5.4-4.4,7.4-4.4s6.7,2.5,6.6,3.1s-4.9,1.6-7.4,2.6
				C79.2,125.9,74.1,130,72.4,129.3z"/>
			<path class="st4" d="M72.9,129.9c-0.2,0-0.4,0-0.6-0.1c-0.2-0.1-0.3-0.3-0.3-0.5c0-0.1,0.2-3.2,2.8-6.1c2.4-2.8,5.6-4.6,7.8-4.6
				c2,0,6.1,2.1,6.9,3.1c0.2,0.2,0.2,0.5,0.2,0.7c-0.2,0.6-1.1,1-4.1,1.8c-1.3,0.4-2.6,0.8-3.6,1.1c-0.9,0.3-2.1,1.1-3.4,1.9
				C75.9,128.8,74.1,129.9,72.9,129.9z M82.5,119.6c-1.6,0-4.4,1.3-7,4.3c-1.8,2-2.3,4.1-2.4,5c1.1-0.1,3.3-1.5,5-2.5
				c1.3-0.8,2.6-1.6,3.5-2c1-0.4,2.3-0.8,3.7-1.2c1.2-0.3,2.7-0.8,3.3-1.1C87.6,121.4,84.1,119.6,82.5,119.6z"/>
		</g>
		<g>
			<path class="st6" d="M98.6,132.9c0.3-4.9-0.8-11-0.8-11s-1.1,5.6-2.5,5.1c-1.4-0.5-3.4-8.9-3.4-8.9s-0.2,2.5-1.5,2.5
				c-1.4,0-5.1-10.7-5.1-10.7s0.6,6.4-1.1,7.2c-1.7,0.8-6.2-8.1-6.2-8.1s0.2,8.7-1.9,8.4c-2-0.3-4.5-13.2-4.5-13.2
				s-0.6,14.1-3.2,14.3c-2.6,0.2-2.9-14.3-2.9-14.3s-2.5,12.8-4.5,13.2c-2,0.3-1.9-8.4-1.9-8.4s-4.5,8.9-6.2,8.1
				c-1.7-0.8-1.1-7.2-1.1-7.2s-3.7,10.7-5.1,10.7c-1.4,0-1.5-2.5-1.5-2.5s-2,8.4-3.4,8.9s-2.5-5.1-2.5-5.1s-1.1,6.1-0.8,11
				c0,0-6.6-3.9-3.3-14.8c3.3-10.9,10.2-21.4,32.2-20.4s31.6,10.5,32.6,14.5C101.2,116.1,98.6,132.9,98.6,132.9z"/>
			<path class="st6" d="M98.6,133.4C98.6,133.4,98.5,133.4,98.6,133.4c-0.3,0-0.5-0.3-0.5-0.5c0.2-2.9-0.1-6.2-0.4-8.4
				c-0.4,1.2-0.9,2.5-1.6,2.9c-0.3,0.2-0.6,0.2-0.9,0.1c-1.2-0.4-2.5-4.5-3.2-7.4c-0.3,0.6-0.8,1-1.5,1c-1.2,0-2.9-3.9-4.5-8
				c-0.1,1.9-0.4,4-1.5,4.5c-1.6,0.8-4.2-3.4-5.9-6.5c-0.1,2.3-0.4,5.7-1.4,6.6c-0.3,0.2-0.6,0.3-1,0.3c-1.6-0.3-3.2-5.7-4.1-10
				c-0.4,4.6-1.3,11-3.5,11.1c-0.2,0-0.6,0-1-0.4c-1.4-1.3-2-6.7-2.3-10.5c-1,4.3-2.5,9.5-4.1,9.8c-0.3,0.1-0.7,0-1-0.3
				c-1.1-0.9-1.4-4.3-1.4-6.6c-1.7,3.1-4.3,7.3-5.9,6.5c-1.1-0.5-1.4-2.6-1.5-4.5c-1.6,4.1-3.3,8-4.5,8c-0.7,0-1.2-0.4-1.5-1
				c-0.8,2.9-2.1,7-3.2,7.4c-0.3,0.1-0.6,0.1-0.9-0.1c-0.7-0.4-1.2-1.7-1.6-2.9c-0.3,2.2-0.6,5.5-0.4,8.4c0,0.2-0.1,0.4-0.2,0.5
				c-0.2,0.1-0.4,0.1-0.5,0c-0.1,0-6.9-4.3-3.5-15.4c3.1-10.2,9.6-21.8,32.7-20.7c22.2,1,31.9,10.6,33,14.8c1,4-1.5,20.2-1.6,20.9
				C99,133.2,98.8,133.4,98.6,133.4z M64.9,98.2c-20.2,0-26.1,10.7-29,20.1c-2.5,8.1,0.7,12.2,2.3,13.6c-0.1-4.7,0.8-9.8,0.8-10.1
				c0-0.2,0.2-0.4,0.5-0.4c0.3,0,0.4,0.2,0.5,0.4c0.3,1.7,1.1,4.3,1.8,4.7c0.7-0.3,2.2-4.6,3.1-8.5c0.1-0.2,0.3-0.4,0.5-0.4
				c0.2,0,0.4,0.2,0.5,0.5c0,0.5,0.3,2,1.1,2c0.7-0.3,3-5.6,4.6-10.4c0.1-0.2,0.3-0.4,0.6-0.3c0.2,0.1,0.4,0.3,0.4,0.5
				c-0.2,2.4-0.1,6.3,0.8,6.7c0.6,0.3,3.1-3.1,5.5-7.8c0.1-0.2,0.3-0.3,0.6-0.3c0.2,0.1,0.4,0.3,0.4,0.5c0,2.8,0.3,7.1,1.1,7.8
				C60.9,117,61,117,61,117c0.9-0.1,2.8-6,4.1-12.8c0-0.2,0.3-0.4,0.5-0.4c0.3,0,0.4,0.2,0.5,0.5c0.1,4.8,0.8,12.4,2.2,13.7
				c0.1,0.1,0.2,0.1,0.2,0.1c1.3-0.1,2.5-7.2,2.8-13.8c0-0.2,0.2-0.5,0.5-0.5c0.2,0,0.5,0.2,0.5,0.4c1.3,6.8,3.2,12.6,4.1,12.8
				c0,0,0.1,0,0.2-0.1c0.9-0.7,1.2-5,1.1-7.8c0-0.2,0.2-0.4,0.4-0.5c0.2-0.1,0.5,0.1,0.6,0.3c2.4,4.8,4.9,8.1,5.5,7.8
				c0.9-0.5,1-4.3,0.8-6.7c0-0.2,0.1-0.5,0.4-0.5c0.2-0.1,0.5,0.1,0.6,0.3c1.6,4.7,3.9,10,4.7,10.4c0.7,0,1-1.6,1-2
				c0-0.2,0.2-0.4,0.4-0.5c0.3,0,0.5,0.1,0.5,0.4c0.9,3.9,2.4,8.2,3.1,8.5c0.7-0.4,1.5-3,1.8-4.7c0-0.2,0.2-0.4,0.5-0.4c0,0,0,0,0,0
				c0.2,0,0.4,0.2,0.5,0.4c0,0.1,0.4,2.3,0.6,5c0.7-5.2,1.4-12.2,0.8-14.5c-0.9-3.4-10-13.1-32.1-14.1
				C66.7,98.2,65.8,98.2,64.9,98.2z"/>
		</g>
		<g>
			<path class="st5" d="M22.6,143.4c0,0-11.2-14.1-15.5-5.3C2.9,147.1,22.6,143.4,22.6,143.4z"/>
			<path class="st4" d="M14.8,145.2c-3.4,0-7-0.5-8.5-2.5c-1-1.3-1-3,0-4.9c1-2.1,2.5-3.3,4.3-3.5c5.4-0.6,12.1,7.6,12.8,8.5l1,1.3
				l-1.6,0.3C22.1,144.5,18.5,145.2,14.8,145.2z M11.6,136.7c-0.1,0-0.2,0-0.3,0c-1,0.1-1.8,0.8-2.4,2c-0.8,1.7-0.3,2.3-0.1,2.5
				c1.4,1.8,7,1.7,11.1,1.1C17.9,140.1,14.2,136.7,11.6,136.7z"/>
		</g>
		<g>
			<path class="st5" d="M17.3,157.8c0,0-15.8-8.6-16.3,1.2C0.5,168.8,17.3,157.8,17.3,157.8z"/>
			<path class="st4" d="M4.5,164c-0.9,0-1.8-0.2-2.5-0.6c-1.4-0.8-2.1-2.3-2-4.5c0.1-2.3,1-4,2.6-4.9c4.8-2.7,14.1,2.3,15.1,2.8
				l1.4,0.8l-1.4,0.9C16.8,159.2,9.4,164,4.5,164z M6.4,155.6c-0.8,0-1.6,0.1-2.2,0.5c-0.9,0.5-1.4,1.4-1.4,2.9
				c-0.1,1.9,0.6,2.3,0.9,2.4c2,1.1,7.3-1.3,10.9-3.4C12.3,156.9,8.9,155.6,6.4,155.6z"/>
		</g>
		<g>
			<path class="st5" d="M113.4,143.4c0,0,11.2-14.1,15.5-5.3C133.1,147.1,113.4,143.4,113.4,143.4z"/>
			<path class="st4" d="M121.2,145.2c-3.7,0-7.3-0.6-8-0.8l-1.6-0.3l1-1.3c0.7-0.9,7.4-9.1,12.8-8.5c1.9,0.2,3.3,1.4,4.3,3.5
				c1,2,0.9,3.7,0,4.9C128.2,144.6,124.7,145.2,121.2,145.2z M116.1,142.3c4.1,0.6,9.8,0.7,11.1-1.1c0.2-0.2,0.6-0.9-0.1-2.5
				c-0.6-1.3-1.4-1.9-2.4-2C122,136.4,118.2,140,116.1,142.3z"/>
		</g>
		<g>
			<path class="st5" d="M118.7,157.8c0,0,15.8-8.6,16.3,1.2C135.5,168.8,118.7,157.8,118.7,157.8z"/>
			<path class="st4" d="M131.5,164c-5,0-12.4-4.8-13.4-5.4l-1.4-0.9l1.4-0.8c1-0.6,10.4-5.5,15.1-2.8c1.6,0.9,2.5,2.6,2.6,4.9
				c0.1,2.2-0.6,3.7-2,4.5C133.3,163.9,132.5,164,131.5,164z M121.6,158c3.5,2.1,8.7,4.5,10.7,3.4c0.2-0.1,0.9-0.5,0.8-2.4
				c-0.1-1.4-0.5-2.3-1.4-2.8C129.4,154.8,124.4,156.6,121.6,158z"/>
		</g>
		<g>
			<path class="st5" d="M114,173.1c0,0,17.8-2.7,14.9,6.7C125.9,189.3,114,173.1,114,173.1z"/>
			<path class="st4" d="M125.8,183.8c-5,0-11.8-9-12.6-10.1l-1-1.3l1.6-0.2c1.2-0.2,11.6-1.6,15.2,2.5c1.2,1.4,1.5,3.3,0.8,5.5
				c-0.7,2.1-1.8,3.3-3.4,3.6C126.2,183.8,126,183.8,125.8,183.8z M116.7,174.4c2.6,3.2,6.6,7.2,8.9,6.8c0.3,0,1.1-0.2,1.6-1.9
				c0.4-1.3,0.3-2.4-0.3-3.1C125,174.1,119.8,174.1,116.7,174.4z"/>
		</g>
		<g>
			<path class="st4" d="M38.4,141.8c-0.4,0-0.8-0.2-0.9-0.6c-0.8-2.1-3.9-3-3.9-3c-0.5-0.1-0.8-0.7-0.7-1.2c0.1-0.5,0.7-0.8,1.2-0.7
				c0.2,0,4.1,1.2,5.3,4.2c0.2,0.5-0.1,1.1-0.6,1.3C38.6,141.8,38.5,141.8,38.4,141.8z"/>
		</g>
		<g>
			<path class="st4" d="M97.6,141.8c-0.1,0-0.2,0-0.3-0.1c-0.5-0.2-0.8-0.8-0.6-1.3c1.2-3.1,5.1-4.2,5.3-4.2
				c0.5-0.1,1.1,0.2,1.2,0.7c0.1,0.5-0.2,1.1-0.7,1.2l0,0c0,0-3.1,0.9-3.9,3C98.4,141.6,98,141.8,97.6,141.8z"/>
		</g>
		<g>
			<path class="st5" d="M92.2,168.7c0,0,1.5-4.7-1.7-4.9c-3.2-0.2-4.7,3.2-4.7,3.2s0-3.9-3.5-3.9s-4.2,3.2-4.2,3.2s0-3.2-2.5-3.2
				c-2.5,0-3.9,3.7-3.9,3.7s0.5-4.2-3.7-4.2s-3.7,4.2-3.7,4.2s-1.5-3.7-3.9-3.7s-2.5,3.2-2.5,3.2s-0.7-3.2-4.2-3.2s-3.5,3.9-3.5,3.9
				s-1.5-3.5-4.7-3.2s-1.5,4.2-1.5,4.2s2.2,3.2,9.6,3.2c2,0,11.3-1.2,14.3-1.2s12.8,2,17.8,0.7S92.2,168.7,92.2,168.7z"/>
			<path class="st4" d="M53.7,171.6c-7.6,0-9.9-3.3-10-3.4c-0.1-0.2-1.1-2.4-0.2-3.9c0.4-0.7,1.1-1,2-1.1c2.2-0.2,3.6,1.2,4.4,2.3
				c0.4-1.4,1.5-3,3.7-3c2.1,0,3.3,1.1,4,2.1c0.4-1.1,1.2-2.1,2.7-2.1c1.6,0,2.9,1.3,3.6,2.5c0.1-0.6,0.4-1.2,0.9-1.7
				c0.7-0.8,1.8-1.2,3.2-1.2c1.4,0,2.5,0.4,3.2,1.2c0.5,0.5,0.7,1.2,0.9,1.7c0.7-1.1,2-2.5,3.6-2.5c1.5,0,2.3,1,2.7,2.1
				c0.7-1,1.9-2.1,4-2.1c2.3,0,3.3,1.6,3.7,3c0.8-1.1,2.2-2.4,4.4-2.3c0.9,0.1,1.5,0.4,2,1.1c1.1,1.6,0.2,4.4,0.2,4.5
				c0,0.1-0.1,0.2-0.2,0.3c-0.1,0-1.6,0.8-6.5,2c-3.5,0.9-9.4,0.2-13.6-0.3c-1.8-0.2-3.4-0.4-4.2-0.4c-1.6,0-5.2,0.4-8.4,0.7
				C56.9,171.4,54.6,171.6,53.7,171.6z M44.5,167.7c0.3,0.3,2.6,3,9.2,3c0.9,0,3.3-0.3,5.8-0.5c3.2-0.3,6.8-0.7,8.5-0.7
				c0.9,0,2.4,0.2,4.4,0.4c4.2,0.5,9.9,1.2,13.3,0.3c3.9-1,5.6-1.6,6.1-1.9c0.2-0.8,0.5-2.5-0.1-3.4c-0.3-0.4-0.7-0.6-1.2-0.6
				c-2.8-0.2-4.1,2.8-4.2,2.9c-0.1,0.2-0.3,0.3-0.6,0.3c-0.2,0-0.4-0.2-0.4-0.5c0-0.1,0-3.5-3-3.5c-3,0-3.7,2.7-3.7,2.8
				c-0.1,0.2-0.3,0.4-0.5,0.4c-0.2,0-0.4-0.2-0.4-0.5c0-0.1,0-2.7-2-2.7c-1.7,0-3.1,2.4-3.5,3.4c-0.1,0.2-0.3,0.4-0.6,0.3
				c-0.2-0.1-0.4-0.3-0.4-0.5c0,0,0.2-1.7-0.8-2.7c-0.5-0.6-1.4-0.9-2.4-0.9c-1.1,0-1.9,0.3-2.4,0.9c-0.9,1.1-0.8,2.7-0.8,2.7
				c0,0.2-0.1,0.5-0.4,0.5c-0.2,0.1-0.5-0.1-0.6-0.3c0,0-1.4-3.4-3.5-3.4c-1.9,0-2,2.6-2,2.7c0,0.2-0.2,0.5-0.4,0.5
				c-0.2,0-0.5-0.1-0.5-0.4c0-0.1-0.7-2.8-3.7-2.8c-2.9,0-3,3.3-3,3.5c0,0.2-0.2,0.4-0.4,0.5c-0.2,0-0.5-0.1-0.6-0.3
				c-0.1-0.1-1.4-3.1-4.2-2.9c-0.6,0-1,0.3-1.3,0.6C43.8,165.7,44.3,167.1,44.5,167.7z M92.2,168.7L92.2,168.7L92.2,168.7z"/>
		</g>
		<g>
			<path class="st6" d="M67.8,147.7c0,0,5.9,2,8.1,1.5c2.2-0.5,5.2-2.7,5.2-2.7s2.7,1.7,5.7,1.7c3,0,2-1.5,2-1.5s5.9,2.5,7.2,1.2
				c1.2-1.2-6.7-12.3-9.4-13.6s-6.5,2-8.4,2.7c-4.4,1.7-10.1,4.2-10.1,4.2s-5.7-2.5-10.1-4.2c-1.9-0.7-5.7-3.9-8.4-2.7
				c-2.7,1.2-10.6,12.3-9.4,13.6c1.2,1.2,7.2-1.2,7.2-1.2s-1,1.5,2,1.5c3,0,5.7-1.7,5.7-1.7s3,2.2,5.2,2.7c2.2,0.5,8.1-1.5,8.1-1.5
				H67.8z"/>
			<path d="M75,149.8c-2.2,0-5.8-1.1-7-1.5c-1.4,0.4-6,1.8-8,1.4c-1.9-0.4-4.3-2-5.1-2.6c-0.8,0.5-3.1,1.6-5.6,1.6
				c-1.3,0-2.2-0.3-2.5-0.9c-0.1-0.1-0.1-0.2-0.1-0.3c-2,0.8-5.7,2-6.9,0.8c-0.2-0.2-0.3-0.6-0.2-1.2c0.6-3,7.2-12.1,9.8-13.2
				c2.2-1,5,0.6,7,1.8c0.7,0.4,1.3,0.8,1.7,0.9c3.9,1.5,8.9,3.7,9.9,4.1c1-0.5,6-2.6,9.9-4.1c0.5-0.2,1-0.5,1.7-0.9
				c2-1.2,4.8-2.8,7-1.8c2.5,1.2,9.2,10.2,9.8,13.2c0.1,0.5,0,0.9-0.2,1.2c-1.2,1.2-4.9,0-6.9-0.8c0,0.1-0.1,0.2-0.1,0.3
				c-0.3,0.6-1.1,0.9-2.5,0.9c-2.5,0-4.8-1.2-5.6-1.6c-0.8,0.6-3.2,2.2-5.1,2.6C75.7,149.7,75.4,149.8,75,149.8z M68.7,147.5
				c2,0.6,5.6,1.6,7.1,1.2c2.1-0.5,5-2.6,5-2.6c0.2-0.1,0.4-0.1,0.6,0c0,0,2.6,1.6,5.4,1.6c1,0,1.5-0.2,1.6-0.4
				c0.1-0.1,0-0.3-0.1-0.3c-0.1-0.2-0.1-0.4,0-0.6c0.1-0.2,0.4-0.2,0.6-0.1c2.7,1.1,6,2,6.6,1.3c0.4-1.2-6.6-11.6-9.2-12.8
				c-1.8-0.8-4.3,0.7-6.1,1.7c-0.7,0.4-1.4,0.8-1.9,1c-4.4,1.7-10,4.2-10.1,4.2c-0.1,0.1-0.3,0.1-0.4,0c-0.1,0-5.7-2.5-10.1-4.2
				c-0.5-0.2-1.2-0.6-1.9-1c-1.8-1.1-4.4-2.5-6.1-1.7c-2.7,1.2-9.7,11.6-9.2,12.8c0.6,0.6,3.9-0.2,6.6-1.4c0.2-0.1,0.4,0,0.6,0.1
				c0.1,0.2,0.1,0.4,0,0.6c0,0-0.1,0.2-0.1,0.3c0.1,0.2,0.6,0.4,1.6,0.4c2.8,0,5.4-1.6,5.4-1.6c0.2-0.1,0.4-0.1,0.6,0
				c0,0,2.9,2.2,5,2.6c1.5,0.3,5.1-0.6,7.1-1.2c0.1-0.2,0.3-0.3,0.4-0.3h0.5C68.4,147.2,68.6,147.3,68.7,147.5z"/>
		</g>
		<g>
			<path class="st0" d="M62.3,134.4c0,0-3.5,3.2-0.5,6.4c3,3.2,10.5,2.7,13.3,0.5c3.2-2.5-0.2-5.9-0.2-5.9"/>
			<path d="M68.5,144.1c-2.8,0-5.7-0.8-7.4-2.6c-2.9-3.1-0.9-6.5,0.5-7.8c0.4-0.4,1-0.3,1.4,0.1c0.4,0.4,0.3,1,0,1.4
				c-0.3,0.3-2.6,2.6-0.4,5c2.6,2.8,9.5,2.3,12,0.4c0.6-0.5,0.9-1,1-1.6c0.1-1.2-0.9-2.5-1.3-2.9c-0.4-0.4-0.4-1,0-1.4
				c0.4-0.4,1-0.4,1.4,0c0.1,0.1,2,2.1,1.9,4.4c-0.1,1.2-0.7,2.2-1.7,3C74.2,143.3,71.3,144.1,68.5,144.1z"/>
		</g>
		<g>
			<path class="st4" d="M98.6,133.9C98.6,133.9,98.5,133.9,98.6,133.9c-0.6,0-1-0.5-1-1c0.1-2.1,0-4.4-0.2-6.4
				c-0.3,0.6-0.7,1.1-1.1,1.3c-0.4,0.2-0.9,0.3-1.3,0.1c-1-0.4-2.2-2.7-3.3-6.8c-0.3,0.3-0.8,0.5-1.3,0.5c-0.5,0-1.6,0-4.2-6.4
				c-0.2,1.3-0.7,2.4-1.6,2.8c-0.6,0.3-2.1,1-5.7-5.2c-0.2,2.2-0.6,4.4-1.5,5.2c-0.4,0.3-0.9,0.5-1.4,0.4c-1.3-0.2-2.6-2.7-3.8-7.5
				c-0.6,4.7-1.7,8.6-3.6,8.7c-0.3,0-0.8,0-1.3-0.5c-1.2-1.1-1.8-4.5-2.2-7.9c-1.2,4.6-2.5,7-3.8,7.2c-0.5,0.1-1-0.1-1.4-0.4
				c-1-0.8-1.4-3.1-1.5-5.2c-3.6,6.2-5.2,5.5-5.7,5.2c-0.9-0.4-1.3-1.5-1.6-2.8c-2.6,6.4-3.7,6.4-4.2,6.4c-0.5,0-1-0.2-1.3-0.5
				c-1.2,4.2-2.3,6.4-3.3,6.8c-0.4,0.1-0.9,0.1-1.3-0.1c-0.4-0.2-0.8-0.7-1.1-1.3c-0.2,2-0.3,4.3-0.2,6.4c0,0.5-0.4,1-0.9,1
				c-0.5,0-1-0.4-1-0.9c-0.3-5,0.7-11,0.8-11.3c0.1-0.5,0.5-0.8,1-0.8c0,0,0,0,0,0c0.5,0,0.9,0.3,1,0.8c0.3,1.7,0.9,3.4,1.3,4.1
				c0.7-1.1,1.9-4.8,2.6-7.9c0.1-0.5,0.6-0.8,1-0.8c0.5,0,0.9,0.4,0.9,0.9c0,0.6,0.2,1.2,0.4,1.4c0.9-1.1,2.9-5.8,4.3-9.9
				c0.2-0.5,0.6-0.7,1.1-0.6c0.5,0.1,0.8,0.6,0.8,1.1c-0.3,2.6,0,5.5,0.4,6.1c0.9-0.6,3.2-3.9,5-7.5c0.2-0.4,0.7-0.6,1.1-0.5
				c0.4,0.1,0.8,0.5,0.7,1c-0.1,3.1,0.3,6.3,0.8,7.2c1-1.3,2.6-7.1,3.6-12.2c0.1-0.5,0.5-0.8,1.1-0.8c0.5,0,0.9,0.5,0.9,1
				c0.1,6.4,1,12.4,1.9,13.3c0.9-0.8,2-6.9,2.3-13.3c0-0.5,0.4-0.9,0.9-0.9c0.5,0,0.9,0.3,1,0.8c1,5.1,2.6,10.9,3.6,12.2
				c0.5-0.9,0.8-4.1,0.8-7.2c0-0.5,0.3-0.9,0.7-1c0.4-0.1,0.9,0.1,1.1,0.5c1.8,3.6,4,6.9,5,7.5c0.5-0.7,0.7-3.5,0.4-6.1
				c0-0.5,0.3-1,0.8-1.1c0.5-0.1,1,0.2,1.1,0.6c1.4,4.1,3.4,8.8,4.3,9.9c0.2-0.2,0.4-0.9,0.4-1.4c0-0.5,0.4-0.9,0.9-0.9
				c0.5,0,0.9,0.3,1,0.8c0.8,3.1,1.9,6.8,2.6,7.9c0.4-0.7,1-2.4,1.3-4.1c0.1-0.5,0.5-0.8,1-0.8c0,0,0,0,0,0c0.5,0,0.9,0.3,1,0.8
				c0,0.3,1.1,6.3,0.8,11.3C99.5,133.5,99.1,133.9,98.6,133.9z"/>
		</g>
		<g>
			<path class="st10" d="M47.3,132.8c-0.2,0-0.3-0.1-0.4-0.2c0,0-0.8-1.1-1.8-1.1c-0.3,0-0.5-0.2-0.5-0.5s0.2-0.5,0.5-0.5
				c1.6,0,2.6,1.5,2.6,1.5c0.2,0.2,0.1,0.5-0.1,0.7C47.5,132.7,47.4,132.8,47.3,132.8z"/>
		</g>
		<g>
			<path class="st10" d="M44.3,132.9C44.3,132.9,44.3,132.9,44.3,132.9c-0.1,0-1-0.2-2.3-0.2c-0.3,0-0.5-0.2-0.5-0.5
				c0-0.3,0.2-0.5,0.5-0.5c1.3,0,2.3,0.2,2.4,0.2c0.3,0,0.4,0.3,0.4,0.6C44.8,132.7,44.6,132.9,44.3,132.9z"/>
		</g>
		<g>
			<path class="st10" d="M88.7,132.8c-0.1,0-0.2,0-0.3-0.1c-0.2-0.2-0.3-0.5-0.1-0.7c0-0.1,1.1-1.5,2.6-1.5c0.3,0,0.5,0.2,0.5,0.5
				s-0.2,0.5-0.5,0.5c-1,0-1.8,1.1-1.8,1.1C89,132.7,88.9,132.8,88.7,132.8z"/>
		</g>
		<g>
			<path class="st10" d="M91.7,132.9c-0.2,0-0.4-0.2-0.5-0.4c0-0.3,0.1-0.5,0.4-0.6c0,0,1-0.2,2.4-0.2c0.3,0,0.5,0.2,0.5,0.5
				c0,0.3-0.2,0.5-0.5,0.5C92.7,132.8,91.8,132.9,91.7,132.9C91.7,132.9,91.7,132.9,91.7,132.9z"/>
		</g>
		<g>
			<g>
				<defs>
					<path id="SVGID_1_" d="M75,138.1c0,2.2-2.9,3.9-6.4,3.9c-3.5,0-6.4-1.8-6.4-3.9c0-2.2,2.9-3.9,6.4-3.9
						C72.1,134.2,75,135.9,75,138.1z"/>
				</defs>
				<clipPath id="SVGID_2_">
					<use xlink:href="#SVGID_1_"  style="overflow:visible;"/>
				</clipPath>
				<rect x="62.2" y="134.2" class="st11" width="12.8" height="7.9"/>
				<ellipse class="st11" cx="68.6" cy="138.1" rx="5.5" ry="5"/>
				<ellipse class="st12" cx="68.6" cy="138.1" rx="5.4" ry="4.9"/>
				<ellipse class="st13" cx="68.6" cy="138.1" rx="5.4" ry="4.9"/>
				<ellipse class="st14" cx="68.6" cy="138.1" rx="5.4" ry="4.9"/>
				<ellipse class="st15" cx="68.6" cy="138.1" rx="5.3" ry="4.8"/>
				<ellipse class="st16" cx="68.6" cy="138.1" rx="5.3" ry="4.8"/>
				<ellipse class="st17" cx="68.6" cy="138.1" rx="5.2" ry="4.8"/>
				<ellipse class="st18" cx="68.6" cy="138.1" rx="5.2" ry="4.7"/>
				<ellipse class="st19" cx="68.6" cy="138.1" rx="5.2" ry="4.7"/>
				<ellipse class="st20" cx="68.6" cy="138.1" rx="5.1" ry="4.7"/>
				<ellipse class="st21" cx="68.6" cy="138.1" rx="5.1" ry="4.6"/>
				<ellipse class="st22" cx="68.6" cy="138.1" rx="5.1" ry="4.6"/>
				<ellipse class="st23" cx="68.6" cy="138.1" rx="5" ry="4.6"/>
				<ellipse class="st24" cx="68.6" cy="138.1" rx="5" ry="4.5"/>
				<ellipse class="st25" cx="68.6" cy="138.1" rx="5" ry="4.5"/>
				<ellipse class="st26" cx="68.6" cy="138.1" rx="4.9" ry="4.5"/>
				<ellipse class="st27" cx="68.6" cy="138.1" rx="4.9" ry="4.4"/>
				<ellipse class="st28" cx="68.6" cy="138.1" rx="4.8" ry="4.4"/>
				<ellipse class="st29" cx="68.6" cy="138.1" rx="4.8" ry="4.4"/>
				<ellipse class="st30" cx="68.6" cy="138.1" rx="4.8" ry="4.3"/>
				<ellipse class="st31" cx="68.6" cy="138.1" rx="4.7" ry="4.3"/>
				<ellipse class="st32" cx="68.6" cy="138.1" rx="4.7" ry="4.3"/>
				<ellipse class="st33" cx="68.6" cy="138.1" rx="4.7" ry="4.2"/>
				<ellipse class="st34" cx="68.6" cy="138.1" rx="4.6" ry="4.2"/>
				<ellipse class="st35" cx="68.6" cy="138.1" rx="4.6" ry="4.2"/>
				<ellipse class="st36" cx="68.6" cy="138.1" rx="4.5" ry="4.1"/>
				<ellipse class="st37" cx="68.6" cy="138.1" rx="4.5" ry="4.1"/>
				<ellipse class="st38" cx="68.6" cy="138.1" rx="4.5" ry="4.1"/>
				<ellipse class="st39" cx="68.6" cy="138.1" rx="4.4" ry="4"/>
				<ellipse class="st40" cx="68.6" cy="138.1" rx="4.4" ry="4"/>
				<ellipse class="st41" cx="68.6" cy="138.1" rx="4.4" ry="4"/>
				<ellipse class="st42" cx="68.6" cy="138.1" rx="4.3" ry="3.9"/>
				<ellipse class="st43" cx="68.6" cy="138.1" rx="4.3" ry="3.9"/>
				<ellipse class="st44" cx="68.6" cy="138.1" rx="4.2" ry="3.9"/>
				<ellipse class="st45" cx="68.6" cy="138.1" rx="4.2" ry="3.8"/>
				<ellipse class="st46" cx="68.6" cy="138.1" rx="4.2" ry="3.8"/>
				<ellipse class="st47" cx="68.6" cy="138.1" rx="4.1" ry="3.8"/>
				<ellipse class="st48" cx="68.6" cy="138.1" rx="4.1" ry="3.7"/>
				<ellipse class="st49" cx="68.6" cy="138.1" rx="4.1" ry="3.7"/>
				<ellipse class="st50" cx="68.6" cy="138.1" rx="4" ry="3.7"/>
				<ellipse class="st51" cx="68.6" cy="138.1" rx="4" ry="3.6"/>
				<ellipse class="st52" cx="68.6" cy="138.1" rx="4" ry="3.6"/>
				<ellipse class="st53" cx="68.6" cy="138.1" rx="3.9" ry="3.6"/>
				<ellipse class="st54" cx="68.6" cy="138.1" rx="3.9" ry="3.5"/>
				<ellipse class="st55" cx="68.6" cy="138.1" rx="3.8" ry="3.5"/>
				<ellipse class="st56" cx="68.6" cy="138.1" rx="3.8" ry="3.5"/>
				<ellipse class="st57" cx="68.6" cy="138.1" rx="3.8" ry="3.4"/>
				<ellipse class="st58" cx="68.6" cy="138.1" rx="3.7" ry="3.4"/>
				<ellipse class="st59" cx="68.6" cy="138.1" rx="3.7" ry="3.4"/>
				<ellipse class="st60" cx="68.6" cy="138.1" rx="3.7" ry="3.3"/>
				<ellipse class="st61" cx="68.6" cy="138.1" rx="3.6" ry="3.3"/>
				<ellipse class="st62" cx="68.6" cy="138.1" rx="3.6" ry="3.2"/>
				<ellipse class="st63" cx="68.6" cy="138.1" rx="3.5" ry="3.2"/>
				<ellipse class="st64" cx="68.6" cy="138.1" rx="3.5" ry="3.2"/>
				<ellipse class="st65" cx="68.6" cy="138.1" rx="3.5" ry="3.1"/>
				<ellipse class="st66" cx="68.6" cy="138.1" rx="3.4" ry="3.1"/>
				<ellipse class="st67" cx="68.6" cy="138.1" rx="3.4" ry="3.1"/>
				<ellipse class="st68" cx="68.6" cy="138.1" rx="3.4" ry="3"/>
				<ellipse class="st69" cx="68.6" cy="138.1" rx="3.3" ry="3"/>
				<ellipse class="st70" cx="68.6" cy="138.1" rx="3.3" ry="3"/>
				<ellipse class="st71" cx="68.6" cy="138.1" rx="3.3" ry="2.9"/>
				<ellipse class="st72" cx="68.6" cy="138.1" rx="3.2" ry="2.9"/>
				<ellipse class="st73" cx="68.6" cy="138.1" rx="3.2" ry="2.9"/>
				<ellipse class="st74" cx="68.6" cy="138.1" rx="3.1" ry="2.8"/>
				<ellipse class="st75" cx="68.6" cy="138.1" rx="3.1" ry="2.8"/>
				<ellipse class="st76" cx="68.6" cy="138.1" rx="3.1" ry="2.8"/>
				<ellipse class="st77" cx="68.6" cy="138.1" rx="3" ry="2.7"/>
				<ellipse class="st78" cx="68.6" cy="138.1" rx="3" ry="2.7"/>
				<ellipse class="st79" cx="68.6" cy="138.1" rx="3" ry="2.7"/>
				<ellipse class="st80" cx="68.6" cy="138.1" rx="2.9" ry="2.6"/>
				<ellipse class="st81" cx="68.6" cy="138.1" rx="2.9" ry="2.6"/>
				<ellipse class="st82" cx="68.6" cy="138.1" rx="2.8" ry="2.6"/>
				<ellipse class="st83" cx="68.6" cy="138.1" rx="2.8" ry="2.5"/>
				<ellipse class="st84" cx="68.6" cy="138.1" rx="2.8" ry="2.5"/>
				<ellipse class="st85" cx="68.6" cy="138.1" rx="2.7" ry="2.5"/>
				<ellipse class="st86" cx="68.6" cy="138.1" rx="2.7" ry="2.4"/>
				<ellipse class="st87" cx="68.6" cy="138.1" rx="2.7" ry="2.4"/>
				<ellipse class="st88" cx="68.6" cy="138.1" rx="2.6" ry="2.4"/>
				<ellipse class="st89" cx="68.6" cy="138.1" rx="2.6" ry="2.3"/>
				<ellipse class="st90" cx="68.6" cy="138.1" rx="2.5" ry="2.3"/>
				<ellipse class="st90" cx="68.6" cy="138.1" rx="2.5" ry="2.3"/>
				<ellipse class="st91" cx="68.6" cy="138.1" rx="2.5" ry="2.2"/>
				<ellipse class="st92" cx="68.6" cy="138.1" rx="2.4" ry="2.2"/>
				<ellipse class="st93" cx="68.6" cy="138.1" rx="2.4" ry="2.2"/>
				<ellipse class="st94" cx="68.6" cy="138.1" rx="2.4" ry="2.1"/>
				<ellipse class="st95" cx="68.6" cy="138.1" rx="2.3" ry="2.1"/>
				<ellipse class="st96" cx="68.6" cy="138.1" rx="2.3" ry="2.1"/>
				<ellipse class="st97" cx="68.6" cy="138.1" rx="2.3" ry="2"/>
				<ellipse class="st98" cx="68.6" cy="138.1" rx="2.2" ry="2"/>
				<ellipse class="st99" cx="68.6" cy="138.1" rx="2.2" ry="2"/>
				<ellipse class="st100" cx="68.6" cy="138.1" rx="2.1" ry="1.9"/>
				<ellipse class="st101" cx="68.6" cy="138.1" rx="2.1" ry="1.9"/>
				<ellipse class="st102" cx="68.6" cy="138.1" rx="2.1" ry="1.9"/>
				<ellipse class="st103" cx="68.6" cy="138.1" rx="2" ry="1.8"/>
				<ellipse class="st104" cx="68.6" cy="138.1" rx="2" ry="1.8"/>
				<ellipse class="st105" cx="68.6" cy="138.1" rx="2" ry="1.8"/>
				<ellipse class="st106" cx="68.6" cy="138.1" rx="1.9" ry="1.7"/>
				<ellipse class="st107" cx="68.6" cy="138.1" rx="1.9" ry="1.7"/>
				<ellipse class="st108" cx="68.6" cy="138.1" rx="1.8" ry="1.7"/>
				<ellipse class="st109" cx="68.6" cy="138.1" rx="1.8" ry="1.6"/>
				<ellipse class="st110" cx="68.6" cy="138.1" rx="1.8" ry="1.6"/>
				<ellipse class="st111" cx="68.6" cy="138.1" rx="1.7" ry="1.6"/>
				<ellipse class="st112" cx="68.6" cy="138.1" rx="1.7" ry="1.5"/>
				<ellipse class="st113" cx="68.6" cy="138.1" rx="1.7" ry="1.5"/>
				<ellipse class="st114" cx="68.6" cy="138.1" rx="1.6" ry="1.5"/>
				<ellipse class="st115" cx="68.6" cy="138.1" rx="1.6" ry="1.4"/>
				<ellipse class="st116" cx="68.6" cy="138.1" rx="1.6" ry="1.4"/>
				<ellipse class="st117" cx="68.6" cy="138.1" rx="1.5" ry="1.4"/>
				<ellipse class="st118" cx="68.6" cy="138.1" rx="1.5" ry="1.3"/>
				<ellipse class="st119" cx="68.6" cy="138.1" rx="1.4" ry="1.3"/>
				<ellipse class="st120" cx="68.6" cy="138.1" rx="1.4" ry="1.3"/>
				<ellipse class="st121" cx="68.6" cy="138.1" rx="1.4" ry="1.2"/>
				<ellipse class="st122" cx="68.6" cy="138.1" rx="1.3" ry="1.2"/>
				<ellipse class="st123" cx="68.6" cy="138.1" rx="1.3" ry="1.2"/>
				<ellipse class="st124" cx="68.6" cy="138.1" rx="1.3" ry="1.1"/>
				<ellipse class="st125" cx="68.6" cy="138.1" rx="1.2" ry="1.1"/>
				<ellipse class="st126" cx="68.6" cy="138.1" rx="1.2" ry="1.1"/>
				<ellipse class="st127" cx="68.6" cy="138.1" rx="1.1" ry="1"/>
				<ellipse class="st128" cx="68.6" cy="138.1" rx="1.1" ry="1"/>
				<ellipse class="st129" cx="68.6" cy="138.1" rx="1.1" ry="1"/>
				<ellipse class="st130" cx="68.6" cy="138.1" rx="1" ry="0.9"/>
				<ellipse class="st131" cx="68.6" cy="138.1" rx="1" ry="0.9"/>
				<ellipse class="st132" cx="68.6" cy="138.1" rx="1" ry="0.9"/>
				<ellipse class="st133" cx="68.6" cy="138.1" rx="0.9" ry="0.8"/>
				<ellipse class="st134" cx="68.6" cy="138.1" rx="0.9" ry="0.8"/>
				<ellipse class="st135" cx="68.6" cy="138.1" rx="0.8" ry="0.8"/>
				<ellipse class="st136" cx="68.6" cy="138.1" rx="0.8" ry="0.7"/>
				<ellipse class="st137" cx="68.6" cy="138.1" rx="0.8" ry="0.7"/>
				<ellipse class="st138" cx="68.6" cy="138.1" rx="0.7" ry="0.7"/>
				<ellipse class="st139" cx="68.6" cy="138.1" rx="0.7" ry="0.6"/>
				<ellipse class="st140" cx="68.6" cy="138.1" rx="0.7" ry="0.6"/>
				<ellipse class="st141" cx="68.6" cy="138.1" rx="0.6" ry="0.6"/>
				<ellipse class="st142" cx="68.6" cy="138.1" rx="0.6" ry="0.5"/>
				<ellipse class="st143" cx="68.6" cy="138.1" rx="0.6" ry="0.5"/>
				<ellipse class="st144" cx="68.6" cy="138.1" rx="0.5" ry="0.5"/>
				<ellipse class="st145" cx="68.6" cy="138.1" rx="0.5" ry="0.4"/>
				<ellipse class="st146" cx="68.6" cy="138.1" rx="0.4" ry="0.4"/>
				<ellipse class="st147" cx="68.6" cy="138.1" rx="0.4" ry="0.4"/>
				<ellipse class="st148" cx="68.6" cy="138.1" rx="0.4" ry="0.3"/>
				<ellipse class="st149" cx="68.6" cy="138.1" rx="0.3" ry="0.3"/>
				<ellipse class="st150" cx="68.6" cy="138.1" rx="0.3" ry="0.3"/>
				<ellipse class="st151" cx="68.6" cy="138.1" rx="0.3" ry="0.2"/>
				<ellipse class="st152" cx="68.6" cy="138.1" rx="0.2" ry="0.2"/>
				<ellipse class="st153" cx="68.6" cy="138.1" rx="0.2" ry="0.2"/>
				<ellipse class="st154" cx="68.6" cy="138.1" rx="0.1" ry="0.1"/>
				<ellipse class="st155" cx="68.6" cy="138.1" rx="0.1" ry="0.1"/>
				<ellipse class="st156" cx="68.6" cy="138.1" rx="0.1" ry="0.1"/>
				<path class="st157" d="M68.7,138.1C68.7,138.1,68.6,138.1,68.7,138.1C68.6,138.1,68.6,138.1,68.7,138.1
					C68.6,138.1,68.6,138.1,68.7,138.1C68.6,138.1,68.7,138.1,68.7,138.1z"/>
			</g>
		</g>
		<g>
			<ellipse class="st5" cx="71.6" cy="137" rx="1.8" ry="1.1"/>
		</g>
		<g>
			<path class="st5" d="M22,173.1c0,0-17.8-2.7-14.9,6.7C10.1,189.3,22,173.1,22,173.1z"/>
			<path class="st4" d="M10.2,183.8c-0.2,0-0.4,0-0.6-0.1c-1.6-0.3-2.8-1.5-3.4-3.6c-0.7-2.2-0.4-4.1,0.8-5.5
				c3.5-4.1,14-2.7,15.2-2.5l1.6,0.2l-1,1.3C22,174.8,15.2,183.8,10.2,183.8z M16.6,174.1c-3,0-6.3,0.4-7.6,2
				c-0.7,0.8-0.8,1.9-0.4,3.2c0.6,1.8,1.4,2,1.7,2c2.3,0.4,6.5-3.8,9.2-7.1C18.7,174.2,17.7,174.1,16.6,174.1z"/>
		</g>
		<g>
			<path class="st1" d="M61,84.5c0,0,7.8-6.2,13.2-4.6c5.3,1.6,12.7,4.9,15.8,10.3c3.1,5.4,2.1,8.9,2.1,8.9l-24.8-1.7L61,84.5z"/>
			<path d="M93.1,100.7l-26.8-1.9l-7.1-14.7l0.9-0.7c0.3-0.3,8.5-6.7,14.5-4.9c4.7,1.4,13.1,4.7,16.6,11c3.4,5.9,2.2,9.9,2.2,10.1
				L93.1,100.7z M68.2,96l22.5,1.6c0-1.3-0.3-3.6-2-6.6c-3-5.3-10.7-8.3-14.9-9.6c-3.3-1-8.3,1.9-10.9,3.7L68.2,96z"/>
		</g>
		<g>
			<path class="st158" d="M71.9,97.7l-24-3.3c0,0-13.1-15.5-9.2-17.6c3.9-2.1,19.3,4.5,21.7,6.4c2.4,1.9,5.4,5.3,7.3,7.9
				C69.7,93.9,71.9,97.7,71.9,97.7z"/>
			<path d="M74.8,99.6l-27.6-3.7l-0.4-0.4c-2.6-3.1-11-13.5-10.2-17.9c0.2-0.9,0.7-1.6,1.4-2c4.9-2.6,21.2,4.8,23.3,6.6
				c2.6,2,5.7,5.6,7.5,8.3c1.9,2.7,4.2,6.5,4.2,6.6L74.8,99.6z M48.8,93.1l20.3,2.8c-0.8-1.2-1.7-2.6-2.5-3.8
				c-1.7-2.4-4.6-5.8-7-7.6c-2.6-2.1-17-7.8-20.1-6.3C39,79.7,43.3,86.5,48.8,93.1z"/>
		</g>
	</g>
	<g>
		<rect x="48.3" y="195.9" width="37.5" height="3"/>
	</g>
</g>
<ellipse class="st5" cx="68.5" cy="37.2" rx="60" ry="30"/>
<polyline class="st5" points="64.1,63.4 60.1,75 75.6,64.9 "/>
<g>
	<path d="M17.9,38.4c1.5-1,2.4-2,2.9-3.1h-2.9l0-3.1h1.8v-1.9h3.1v1.9h1.6v2.8c-0.2,0.6-0.2,0.6-0.8,1.6l1.1,0.8v-6.8h7.4v6
		c0,1-0.2,1.4-1.1,1.7v3.2c0.5,0,1-0.1,1.4-0.4v3.2c-0.6,0.4-1.1,0.5-2.1,0.5c-1.6,0-2.1-0.4-2.1-1.9v-4.5h-0.4v0.9
		c0.1,3.2-1.3,5.2-4.3,5.7v-3.2c0.5-0.2,0.6-0.2,0.9-0.5l-1.8-1.4V45h-3.1v-3.8c-0.7,0.5-1,0.8-1.8,1.2V38.4z M24.8,38.5v2.6
		c0.3-0.5,0.4-0.8,0.4-1.8v-0.8H24.8z M29.1,35.6V34h-1.5v1.6H29.1z"/>
	<path d="M34.2,38.8c0.6-0.6,0.7-0.7,2-1.8v-1.1l-2,0.1v-3.2l2-0.1l0-2.2h3.5l0,3.8c1.9-1.2,2.5-1.5,3.8-1.5c1.5,0,2.8,0.6,3.7,1.8
		c0.8,1.1,1.2,2.4,1.2,4.2c0,2.3-0.6,3.7-1.9,4.7c-1.2,0.9-2.7,1.3-4.8,1.3c-0.1,0-0.5,0-0.9,0v-3.3c1.2,0,1.9-0.1,2.5-0.4
		c0.9-0.3,1.4-1.1,1.4-2.4c0-1.4-0.7-2.3-1.9-2.3c-1,0-1.9,0.5-3.3,1.8l0,6.8h-3.6v-3.8c-0.8,0.8-1.4,1.5-2,2.1V38.8z"/>
	<path d="M53.3,30.6h3.6l-1.6,4.9c0.8-0.7,1.3-0.9,2-0.9c0.8,0,1.4,0.2,1.7,0.6c0.3,0.4,0.5,0.9,0.5,1.9c0,0.6,0,1.9-0.1,2.3
		c-0.1,0.7-0.1,1.3-0.1,1.5c0,0.4,0.1,0.6,0.4,0.6c0.4,0,0.6-0.3,0.8-1c0.2-0.8,0.3-1.9,0.3-3.2c0-0.1,0-0.3,0-0.6h3.5
		c-0.3,3.5-0.4,4.6-0.7,5.5c-0.7,1.9-1.9,2.7-4.3,2.7c-2.4,0-3.4-1-3.4-3.3c0-0.2,0-0.9,0.1-1.8c0-0.2,0-0.5,0-0.6
		c0-0.6-0.2-0.9-0.5-0.9c-0.4,0-0.9,0.4-1.1,0.8c-0.2,0.4-0.2,0.5-0.5,1.9l-0.8,3.6h-3.7L53.3,30.6z"/>
	<path d="M65.2,31.1l13.4-0.2v3.4c-2,0.3-3.1,0.6-4.3,1.3c-1.5,0.9-2.2,2.1-2.2,3.5c0,0.9,0.3,1.6,0.9,1.9c0.6,0.3,1.4,0.5,3.2,0.5
		c0.7,0,1.1,0,1.9-0.1v3.3c-0.7,0-1,0-2.1,0c-3,0-4-0.1-5.1-0.6c-1.6-0.8-2.6-2.5-2.6-4.7c0-1.5,0.5-2.7,1.4-3.7
		c0.5-0.5,0.9-0.8,1.9-1.5l-6.3,0.2V31.1z M75.1,35.7h1.8v2.6h-1.8V35.7z M77.3,35.7H79v2.6h-1.7V35.7z"/>
	<path d="M80.2,40.9h5.2v-6.1h-4.4v-3.6h12.6v3.6h-4.4v6.1h5.2v3.6H80.2V40.9z"/>
	<path d="M96.3,40.9h5.2v-6.1h-4.4v-3.6h12.6v3.6h-4.4v6.1h5.2v3.6H96.3V40.9z"/>
	<path d="M114.4,41l3.8,1.4l-1,2.8l-3.8-1.4L114.4,41z M118,30l4.4,1.6l-4.4,10l-3.2-1.2L118,30z"/>
</g>
</svg>
